<svg version="1.1" id="Layer_1" xmlns="http://www.w3.org/2000/svg" xmlns:xlink="http://www.w3.org/1999/xlink" x="0px" y="0px"
	 width="100%" viewBox="0 0 756 734" enable-background="new 0 0 756 734" xml:space="preserve">
<path fill="#F3E8DA" opacity="1.000000" stroke="none" 
	d="
M477.000000,735.000000 
	C318.000000,735.000000 159.500000,735.000000 1.000000,735.000000 
	C1.000000,490.333344 1.000000,245.666672 1.000000,1.000000 
	C253.000000,1.000000 505.000000,1.000000 757.000000,1.000000 
	C757.000000,245.666672 757.000000,490.333344 757.000000,735.000000 
	C663.833313,735.000000 570.666687,735.000000 477.000000,735.000000 
M152.394638,428.264587 
	C151.521515,429.797668 150.648407,431.330750 149.867432,432.883026 
	C149.867432,432.883026 149.851120,432.790314 149.237640,433.045959 
	C147.831100,435.366608 146.424576,437.687225 144.486221,440.422150 
	C139.338242,449.313324 134.190262,458.204498 128.468918,467.424774 
	C117.870682,485.507141 107.203186,503.549347 96.696236,521.684570 
	C88.364693,536.065002 80.229851,550.559387 71.999695,565.000000 
	C71.999695,565.000000 72.004280,565.008240 71.428757,565.345337 
	C65.662018,575.917908 59.895283,586.490479 53.642696,597.523987 
	C46.444103,606.105408 38.476864,614.135986 32.933765,625.630432 
	C37.637447,625.835999 41.201588,626.128357 44.765690,626.127991 
	C237.535385,626.108643 430.305084,626.059143 623.074768,626.028198 
	C658.562561,626.022522 694.050354,626.085205 729.538147,626.108154 
	C735.851013,626.112244 736.903503,624.227539 733.752991,618.618774 
	C733.427185,618.038757 733.018799,617.505249 732.690369,616.926514 
	C717.572449,590.289062 702.589722,563.573669 687.277771,537.048279 
	C681.560303,527.143738 675.076111,517.681702 668.806213,507.366577 
	C666.467712,505.093536 664.129272,502.820526 661.896729,499.787720 
	C659.944092,496.546417 657.926697,493.342072 656.050537,490.057068 
	C649.730652,478.991333 643.652832,467.782440 637.125854,456.841064 
	C628.053589,441.633087 618.587769,426.660492 609.423279,411.506805 
	C601.149231,397.825470 593.164246,383.967438 584.723938,370.391113 
	C583.790405,368.889496 580.577820,367.868134 578.651855,368.156616 
	C576.231750,368.519104 573.827271,370.181549 571.805237,371.776367 
	C566.355286,376.074860 561.135864,380.664398 555.781250,385.085419 
	C545.684509,393.421783 535.414856,401.555542 525.486755,410.087341 
	C517.347107,417.082275 509.597137,424.530762 501.678070,431.782196 
	C499.412170,433.857117 497.159027,435.946045 494.302734,438.373169 
	C486.503082,441.761932 478.439423,444.658752 470.971985,448.666473 
	C462.032135,453.464417 453.230652,458.704132 445.052124,464.686188 
	C436.441772,470.984070 428.733154,478.502106 420.425690,485.234192 
	C417.795807,487.365356 417.002563,489.246063 418.246338,491.933502 
	C415.355164,491.705627 412.463959,491.477722 408.936920,491.332458 
	C408.301819,491.267029 407.666748,491.201599 406.770172,490.687683 
	C406.193420,490.735809 405.616638,490.783966 404.246704,490.792358 
	C400.814087,490.232605 397.384827,489.651154 393.948242,489.116760 
	C376.298370,486.372131 358.592590,483.938232 341.020721,480.762970 
	C333.498871,479.403778 326.254333,476.509796 318.394806,473.798523 
	C313.039551,471.720856 307.382935,470.191986 302.391968,467.451019 
	C292.089111,461.792877 282.141174,455.488495 271.914062,449.184998 
	C271.761353,449.032043 271.578583,448.974091 271.110138,448.356659 
	C256.183319,435.174072 240.981613,422.286621 226.415131,408.717224 
	C214.382523,397.508270 201.238831,394.006531 186.834824,400.368774 
	C180.206497,403.296509 174.005081,407.264740 167.841354,411.130005 
	C165.704193,412.470184 164.264923,414.923279 162.155441,416.942719 
	C162.155441,416.942719 161.989960,417.261658 161.384491,417.431488 
	C160.211655,418.927765 159.038818,420.424011 157.951416,421.949066 
	C157.951416,421.949066 157.917480,421.865540 157.291321,422.091553 
	C155.845856,424.052704 154.400391,426.013824 153.006348,427.989044 
	C153.006348,427.989044 152.970551,427.949310 152.394638,428.264587 
M383.629395,474.686157 
	C396.535187,475.344360 407.259766,469.735718 417.169434,462.448273 
	C439.140778,446.290863 460.931580,429.887360 482.753113,413.526978 
	C509.106049,393.769318 535.410828,373.947449 561.745056,354.164856 
	C568.315430,349.229156 568.751343,346.380615 564.353821,339.145599 
	C556.059021,325.498627 547.759094,311.852600 539.661133,298.088623 
	C519.501587,263.823486 499.557556,229.431335 479.325806,195.209076 
	C465.686432,172.137833 451.689423,149.278168 437.881348,126.306450 
	C428.963165,111.469719 420.393433,96.413162 411.105927,81.812363 
	C404.701355,71.743782 396.157471,64.283623 382.155243,64.905731 
	C369.797577,65.438866 360.935669,71.601768 354.810730,82.035515 
	C329.178589,125.699577 303.553680,169.367935 277.969757,213.060272 
	C254.069656,253.876938 230.206314,294.715179 206.388870,335.580109 
	C204.387100,339.014709 202.821548,342.707458 201.118378,346.311005 
	C199.750977,349.204102 200.743698,351.078644 203.330383,353.002655 
	C233.924118,375.758545 264.437531,398.622589 294.943481,421.496307 
	C312.930695,434.983307 330.743042,448.707336 348.875061,461.995880 
	C358.944519,469.375610 369.954224,474.833557 383.629395,474.686157 
M471.902466,703.367065 
	C473.232483,698.845642 475.468689,694.365356 475.675903,689.793030 
	C475.971954,683.259460 471.029144,679.256836 465.830780,676.030945 
	C466.360229,675.260803 466.564392,674.772522 466.924286,674.468689 
	C473.442505,668.966370 473.657898,661.815491 470.760590,654.885315 
	C468.048248,648.397644 461.677216,646.458435 455.025085,646.319031 
	C447.374207,646.158691 439.716003,646.381470 432.062592,646.294800 
	C429.358551,646.264160 428.162048,647.156189 428.175110,650.008179 
	C428.259857,668.486267 428.279236,686.965027 428.217743,705.443237 
	C428.208038,708.361633 429.066010,709.629395 432.210754,709.544128 
	C440.030121,709.332153 447.937286,710.070923 455.653900,709.140442 
	C461.037231,708.491211 466.163788,705.712952 471.902466,703.367065 
M201.284988,652.693542 
	C200.979828,663.687134 200.840240,674.688721 200.315628,685.671814 
	C199.915710,694.044556 193.295441,701.056458 185.847656,701.600586 
	C175.368942,702.366089 169.418823,698.194946 167.326706,688.353088 
	C166.708038,685.442749 166.448090,682.417236 166.378815,679.436279 
	C166.165878,670.273254 166.176361,661.105225 165.986252,651.941406 
	C165.927963,649.130554 165.979858,646.197571 161.603836,646.367981 
	C157.364838,646.533081 156.824341,648.979065 156.856003,652.366333 
	C156.958771,663.364990 156.838577,674.366516 157.016373,685.363464 
	C157.244019,699.443726 167.241074,709.727722 181.058929,710.351501 
	C197.678375,711.101624 209.273514,702.520386 210.192795,687.578003 
	C210.968628,674.967834 210.451782,662.271973 210.244400,649.618286 
	C210.226212,648.508911 208.420074,646.838562 207.149567,646.483337 
	C205.397324,645.993469 203.364426,646.507629 201.293716,646.598633 
	C201.293716,648.769287 201.293716,650.264343 201.284988,652.693542 
M269.361389,673.683838 
	C264.994385,683.386780 260.639038,693.094971 256.256195,702.790833 
	C253.470947,708.952515 254.183182,710.226379 260.834717,709.397095 
	C262.620392,709.174438 264.643982,707.209595 265.683014,705.509521 
	C267.216553,703.000366 267.748901,699.896301 269.145172,697.278992 
	C269.804047,696.043823 271.462128,694.564575 272.697418,694.536987 
	C282.640503,694.314941 292.590698,694.412659 302.699615,694.412659 
	C303.263916,695.787292 303.878723,697.487732 304.652191,699.112610 
	C305.437225,700.761841 306.392212,702.329468 307.249664,703.945068 
	C310.632019,710.317749 311.083801,710.510437 319.488922,708.733704 
	C319.018036,707.172913 318.747284,705.565735 318.073669,704.150269 
	C309.508606,686.153198 300.805878,668.221069 292.353699,650.171448 
	C290.897369,647.061401 289.016205,646.241882 285.809021,646.240479 
	C282.673553,646.239075 280.938263,647.298523 279.730164,650.167847 
	C276.504608,657.828674 273.053528,665.394531 269.361389,673.683838 
M596.361572,663.479980 
	C596.361572,660.896179 596.361572,658.312378 596.361572,655.354065 
	C601.783813,655.354065 606.418823,655.328430 611.053467,655.362671 
	C614.401184,655.387451 615.587585,653.944580 615.558899,650.474854 
	C615.529724,646.942505 613.969666,646.308899 610.988281,646.327026 
	C598.003296,646.406250 585.017578,646.361084 572.032166,646.363831 
	C569.835510,646.364319 567.626648,646.131348 567.442871,649.421509 
	C567.280334,652.332153 567.884399,654.307434 571.217957,654.572205 
	C576.130493,654.962463 581.035217,655.451355 587.012085,655.995483 
	C587.012085,673.745300 587.012085,691.432251 587.012085,709.135986 
	C590.693420,709.135986 593.273438,709.135986 596.365234,709.135986 
	C596.365234,694.030457 596.365234,679.257385 596.361572,663.479980 
M377.244293,695.474731 
	C377.258911,680.837036 377.327271,666.198914 377.212341,651.562256 
	C377.199585,649.937744 376.497620,647.271118 375.490814,646.929749 
	C373.646698,646.304504 370.483490,646.271790 369.427856,647.421753 
	C367.981110,648.997864 367.465820,651.904053 367.453369,654.244995 
	C367.368286,670.209473 367.371918,686.177917 367.657837,702.139526 
	C367.799133,710.026550 368.279175,710.153931 377.241547,708.719482 
	C377.241547,704.702271 377.241547,700.582153 377.244293,695.474731 
M517.616455,674.495728 
	C517.914673,686.063965 518.212830,697.632263 518.507812,709.075317 
	C527.960693,709.974121 527.960266,709.974121 527.961182,701.402222 
	C527.962585,688.236023 528.013123,675.069519 527.935120,661.903809 
	C527.913452,658.247437 527.618835,654.582458 527.252563,650.941223 
	C526.902161,647.456970 524.673584,646.320007 521.326843,646.343567 
	C517.501953,646.370483 517.615479,648.998718 517.596741,651.497925 
	C517.541809,658.830383 517.596191,666.163696 517.616455,674.495728 
z"/>
<path fill="#0E1B34" opacity="1.000000" stroke="none" 
	d="
M668.941528,508.017822 
	C675.076111,517.681702 681.560303,527.143738 687.277771,537.048279 
	C702.589722,563.573669 717.572449,590.289062 732.690369,616.926514 
	C733.018799,617.505249 733.427185,618.038757 733.752991,618.618774 
	C736.903503,624.227539 735.851013,626.112244 729.538147,626.108154 
	C694.050354,626.085205 658.562561,626.022522 623.074768,626.028198 
	C430.305084,626.059143 237.535385,626.108643 44.765690,626.127991 
	C41.201588,626.128357 37.637447,625.835999 32.933765,625.630432 
	C38.476864,614.135986 46.444103,606.105408 54.227074,597.317383 
	C56.214615,595.794067 57.617783,594.477295 59.363655,593.157349 
	C60.473957,592.768188 61.241554,592.382202 62.069603,591.843384 
	C62.130051,591.690491 62.155613,591.362610 62.526077,591.290894 
	C75.057281,586.283386 87.157715,581.308716 100.514908,580.291748 
	C108.747803,579.664978 116.900711,577.457581 125.118370,577.277710 
	C139.577026,576.961304 154.131226,576.829956 168.512756,578.110596 
	C192.481232,580.245056 216.480728,582.720581 240.218491,586.581360 
	C269.653931,591.368958 298.869171,590.653992 327.989746,585.654541 
	C344.659943,582.792542 361.074066,578.346497 377.510437,574.241211 
	C393.474426,570.253906 409.283173,565.646851 425.235107,561.608398 
	C431.490662,560.024719 437.958313,559.289734 444.314850,558.091125 
	C452.918884,556.468750 461.507446,554.764709 470.105286,553.109375 
	C479.512451,551.298340 488.922577,549.502930 498.743958,547.706787 
	C503.389862,547.165833 507.697296,546.944397 511.840790,546.001953 
	C519.872498,544.175049 527.812073,541.942505 536.240967,539.888184 
	C547.149780,539.539001 556.261963,535.962341 564.330811,529.189026 
	C566.477051,527.387390 569.856750,527.055115 572.964539,525.942871 
	C574.024353,524.764160 575.609070,522.797668 577.417053,521.064087 
	C578.591553,519.937866 580.106689,519.172119 581.443176,518.208801 
	C586.260986,514.736267 590.702209,510.801788 595.212891,506.998138 
	C598.887268,503.899750 601.155090,499.709076 605.166992,496.806396 
	C605.504517,496.574677 605.666260,496.525726 605.989990,496.728149 
	C610.480591,496.730988 614.752014,496.454651 617.706909,492.489410 
	C618.145447,491.900909 619.542725,492.039673 620.490173,491.815308 
	C623.696655,491.055969 626.900208,490.284668 630.529907,489.422729 
	C633.269531,489.374908 635.584167,489.422333 638.027283,489.790924 
	C639.938171,490.624664 641.720520,491.137268 643.826111,491.698242 
	C644.727356,492.039246 645.305420,492.331818 646.006470,492.895508 
	C646.842834,493.384308 647.556152,493.602020 648.564941,493.886780 
	C649.204468,494.161987 649.548462,494.370148 649.933716,494.911438 
	C651.137573,496.250092 652.310181,497.244385 653.460449,498.263947 
	C654.890747,499.531647 656.412964,500.720337 657.689148,502.129913 
	C658.813721,503.372009 659.365540,505.554565 660.682129,506.111023 
	C663.245850,507.194672 666.167908,507.430756 668.941528,508.017822 
z"/>
<path fill="#5D6C57" opacity="1.000000" stroke="none" 
	d="
M498.331421,547.700623 
	C488.922577,549.502930 479.512451,551.298340 470.105286,553.109375 
	C461.507446,554.764709 452.918884,556.468750 444.314850,558.091125 
	C437.958313,559.289734 431.490662,560.024719 425.235107,561.608398 
	C409.283173,565.646851 393.474426,570.253906 377.510437,574.241211 
	C361.074066,578.346497 344.659943,582.792542 327.989746,585.654541 
	C298.869171,590.653992 269.653931,591.368958 240.218491,586.581360 
	C216.480728,582.720581 192.481232,580.245056 168.512756,578.110596 
	C154.131226,576.829956 139.577026,576.961304 125.118370,577.277710 
	C116.900711,577.457581 108.747803,579.664978 100.514908,580.291748 
	C87.157715,581.308716 75.057281,586.283386 62.483414,590.879028 
	C64.299980,584.929199 64.896858,578.162720 72.004280,576.452515 
	C72.004280,572.455017 72.004280,568.731628 72.004280,565.008240 
	C72.004280,565.008240 71.999695,565.000000 72.344116,564.930725 
	C76.917328,562.399963 79.778030,559.338745 81.476517,554.248901 
	C84.124100,546.314941 90.155060,539.966370 93.878189,532.388733 
	C96.689774,526.666382 100.558479,521.463867 103.949516,516.025513 
	C107.811859,509.831421 111.769196,503.693237 115.483543,497.411469 
	C117.541496,493.931030 119.194702,490.210571 121.013535,486.589874 
	C121.441750,485.737457 121.722427,484.803589 122.207169,483.988129 
	C124.620636,479.928101 127.264755,475.989532 129.404877,471.792572 
	C130.013550,470.598938 129.202362,468.681305 129.042297,467.095673 
	C134.190262,458.204498 139.338242,449.313324 145.079956,440.358704 
	C147.047119,439.545044 149.059555,439.112671 149.631012,437.963623 
	C150.333115,436.551880 149.832077,434.541779 149.851120,432.790314 
	C149.851120,432.790314 149.867432,432.883026 150.206482,432.869141 
	C151.353867,431.219971 152.162216,429.584625 152.970551,427.949310 
	C152.970551,427.949310 153.006348,427.989044 153.363586,427.980194 
	C157.545883,427.603638 158.203781,425.059082 157.917480,421.865540 
	C157.917480,421.865540 157.951416,421.949066 158.282364,421.946838 
	C159.738861,420.383636 160.864410,418.822632 161.989960,417.261658 
	C161.989960,417.261658 162.155441,416.942719 162.785812,416.937012 
	C167.489288,417.195343 171.014862,416.550140 172.294647,411.857849 
	C172.447250,411.298279 173.035889,410.684235 173.578934,410.430786 
	C180.784973,407.067780 187.774612,402.915100 195.330856,400.741455 
	C200.482758,399.259460 207.375259,397.187897 210.851959,404.947235 
	C211.160751,405.636383 212.984283,405.527374 213.956589,406.059143 
	C218.318497,408.444580 222.940277,410.517334 226.854874,413.506287 
	C229.948975,415.868744 230.563629,420.723083 235.744522,421.524658 
	C237.760376,421.836517 239.289658,425.277710 241.045822,427.288879 
	C242.320206,428.748383 243.419342,430.433411 244.915405,431.613861 
	C250.339996,435.894196 257.098694,439.120087 261.030762,444.455902 
	C264.221924,448.786255 267.255737,449.029236 271.365753,449.011200 
	C271.578583,448.974091 271.761353,449.032043 271.968750,449.736450 
	C275.277191,456.188141 279.209625,461.325714 286.249573,462.988007 
	C287.203094,463.213135 288.222778,463.329803 289.081421,463.758118 
	C296.924988,467.670929 304.651855,471.836792 312.637115,475.430359 
	C314.229340,476.146881 316.776825,474.740662 318.883789,474.313232 
	C326.254333,476.509796 333.498871,479.403778 341.020721,480.762970 
	C358.592590,483.938232 376.298370,486.372131 393.948242,489.116760 
	C397.384827,489.651154 400.814087,490.232605 404.787750,490.991669 
	C405.896423,491.172699 406.464020,491.154419 407.031647,491.136139 
	C407.666748,491.201599 408.301819,491.267029 409.475281,491.566650 
	C413.008514,492.865112 416.003418,493.929352 419.280823,495.134369 
	C420.377228,495.455322 421.191071,495.635498 422.286743,496.060486 
	C428.416046,497.982605 434.263519,499.659943 440.336182,501.514557 
	C440.727875,501.785522 440.894348,501.879272 441.135406,502.288300 
	C442.498749,503.292236 443.787506,503.980896 445.374451,504.880585 
	C448.629547,506.491730 451.586365,507.891815 454.735901,509.563232 
	C456.326508,510.443512 457.724396,511.052429 459.241577,511.917969 
	C459.645599,512.415466 459.930298,512.656311 460.291962,513.223755 
	C463.588989,515.675049 466.809021,517.799805 470.132935,520.053101 
	C470.236847,520.181519 470.552246,520.280029 470.723450,520.574829 
	C476.247314,525.272644 481.599915,529.675720 487.131927,534.358521 
	C489.039886,536.391602 490.768463,538.144958 492.451416,540.208008 
	C493.253296,541.375366 494.100800,542.233032 495.078369,543.346008 
	C495.574677,544.041992 495.940857,544.482605 496.284363,545.232056 
	C496.865845,545.967773 497.470062,546.394714 498.195251,547.024780 
	C498.316254,547.227966 498.331421,547.700623 498.331421,547.700623 
z"/>
<path fill="#984928" opacity="1.000000" stroke="none" 
	d="
M383.001129,474.265778 
	C369.954224,474.833557 358.944519,469.375610 348.875061,461.995880 
	C330.743042,448.707336 312.930695,434.983307 294.943481,421.496307 
	C264.437531,398.622589 233.924118,375.758545 203.330383,353.002655 
	C200.743698,351.078644 199.750977,349.204102 201.118378,346.311005 
	C202.821548,342.707458 204.387100,339.014709 206.388870,335.580109 
	C230.206314,294.715179 254.069656,253.876938 277.969757,213.060272 
	C303.553680,169.367935 329.178589,125.699577 354.810730,82.035515 
	C360.935669,71.601768 369.797577,65.438866 382.576050,65.464615 
	C383.010071,80.160240 383.023071,94.296974 383.036560,108.433716 
	C383.078400,152.339951 383.120392,196.246185 382.915344,240.220871 
	C382.444824,240.533463 382.221313,240.777603 381.568298,240.997284 
	C379.428741,240.982285 377.718628,240.991760 375.706299,240.860306 
	C374.965576,240.670059 374.527069,240.620773 373.757324,240.379623 
	C372.052795,240.251785 370.679565,240.315811 369.019348,240.393204 
	C369.019348,246.243332 369.019348,251.613022 368.848114,257.318970 
	C366.448395,258.443665 364.219910,259.232117 361.573059,259.962738 
	C358.131409,259.528687 355.108185,259.152496 351.686646,258.684631 
	C350.205933,258.655579 349.123505,258.718201 347.697876,258.587341 
	C338.737610,257.919861 338.738159,257.919861 338.632812,266.315002 
	C338.626678,266.806030 338.600067,267.296753 338.265015,267.907440 
	C338.288269,269.358765 338.629425,270.690247 339.303101,272.147766 
	C340.771545,272.474823 341.907501,272.675812 343.096588,273.230652 
	C344.097565,274.110413 345.301544,274.425110 345.943573,275.203339 
	C347.631317,277.249115 350.456024,279.539978 350.389557,281.656677 
	C349.975342,294.851410 348.961060,308.030151 347.998901,321.203491 
	C347.591034,326.787384 346.790039,332.341644 346.238312,337.916321 
	C345.845154,341.888672 343.583954,343.240845 339.804749,343.075165 
	C337.451294,342.971985 334.537750,342.281769 333.676880,346.073120 
	C332.578064,346.765076 331.794067,347.381531 330.644440,348.051819 
	C329.171600,350.294647 327.810608,352.395294 327.011017,354.691437 
	C325.447449,359.181549 326.705627,360.871094 331.816284,361.601135 
	C331.871490,361.529083 332.045776,361.579834 332.069214,361.999329 
	C333.144226,363.267792 334.086670,364.604431 335.268951,364.868958 
	C338.147278,365.512970 341.130615,365.730225 344.082855,365.993500 
	C353.433319,366.827362 355.867645,370.166565 353.678955,379.368988 
	C353.335236,380.814117 352.111053,382.372223 352.429474,383.578278 
	C352.931213,385.478699 354.095306,388.238647 355.521942,388.623871 
	C357.798065,389.238373 360.519928,388.201904 363.474487,387.878296 
	C366.624420,388.054657 369.353241,388.216248 372.820587,388.421570 
	C371.866150,383.591370 371.017395,379.296082 370.199585,374.580750 
	C370.282898,372.479584 370.335266,370.798462 370.806244,369.032043 
	C375.664734,368.030670 377.847809,369.450256 377.256195,374.345337 
	C377.074371,375.849731 377.806915,377.464630 378.072510,379.470825 
	C378.659912,382.970001 379.295563,386.027283 380.027802,389.387390 
	C381.151337,390.433685 382.178284,391.177216 383.151245,392.391479 
	C383.065247,419.996704 383.033203,447.131256 383.001129,474.265778 
M337.460510,258.485413 
	C337.460510,258.485413 337.558502,258.441132 337.460510,258.485413 
z"/>
<path fill="#B86D49" opacity="1.000000" stroke="none" 
	d="
M383.315247,474.475952 
	C383.033203,447.131256 383.065247,419.996704 383.517151,392.404877 
	C385.617004,391.282318 387.296967,390.617065 389.284546,389.824829 
	C390.143097,388.795868 390.694031,387.893890 391.569427,386.912323 
	C393.561310,384.983704 395.467896,383.153412 392.315308,380.522186 
	C392.221802,378.749603 392.168518,377.385376 392.218323,375.787231 
	C392.399567,375.401947 392.477753,375.250519 392.838867,374.969269 
	C394.783997,373.058624 396.446228,371.277802 398.453613,369.392792 
	C399.516266,369.288361 400.233795,369.288147 401.054382,369.605774 
	C403.803955,369.469574 406.450409,369.015533 409.453644,368.460205 
	C410.544586,368.255096 411.278748,368.151215 412.379822,368.123840 
	C413.495148,368.177246 414.243591,368.154144 415.165375,368.318420 
	C415.874817,368.296143 416.410950,368.086487 417.208008,367.719177 
	C418.155762,367.144135 418.842499,366.726746 419.660339,366.349518 
	C419.791443,366.389709 419.995667,366.206665 420.344055,366.214752 
	C421.371674,366.085602 422.050934,365.948395 423.118408,365.863495 
	C430.668915,364.292664 432.821655,362.020203 432.972351,355.975342 
	C432.995148,356.002960 432.940643,355.954437 433.293518,355.900146 
	C433.957611,355.065399 434.268860,354.284943 434.579681,353.334717 
	C434.579254,353.164978 434.743469,352.867828 435.138977,352.826599 
	C439.331451,344.662598 438.246857,336.192169 437.185974,327.757843 
	C437.101898,327.089203 435.792450,326.574646 434.946472,325.849304 
	C434.840454,325.710114 434.745422,325.373352 434.792358,324.995911 
	C433.073700,321.385773 431.881927,317.461761 426.972534,318.039368 
	C427.007965,318.019562 426.944244,318.073486 426.966522,317.646851 
	C427.586548,314.367798 428.184265,311.515442 428.926178,308.449860 
	C429.382599,307.824005 429.694824,307.411346 430.357117,306.937103 
	C434.570374,304.506897 434.646515,300.880341 433.981232,296.635315 
	C434.033356,295.518433 434.089142,294.774902 434.413635,293.979614 
	C434.501587,293.274139 434.320831,292.620483 434.074097,291.600006 
	C433.979126,290.489227 433.950104,289.745209 434.135284,288.864136 
	C434.063660,288.123871 433.777802,287.520691 433.385529,286.605286 
	C433.209412,285.859375 433.139740,285.425720 433.288147,284.759277 
	C432.129303,278.141174 427.964050,274.248505 422.051636,271.496704 
	C419.372528,269.522369 416.981171,267.384033 414.181549,266.330353 
	C407.001282,263.627930 406.904999,263.820282 406.991150,256.034027 
	C407.009277,254.394165 407.503204,252.733856 407.341980,251.126724 
	C407.233185,250.042175 406.359650,249.034363 405.810547,247.625900 
	C405.209625,246.156128 404.626343,245.052689 404.075623,243.823822 
	C404.108215,243.698410 404.185333,243.450989 404.128967,243.120056 
	C401.979584,239.960464 397.354584,239.990433 393.628113,242.983963 
	C392.779480,244.380707 392.257629,245.648148 391.424103,247.017242 
	C391.116211,248.419983 391.119995,249.721085 391.128906,251.390594 
	C391.039673,252.488098 390.945282,253.217148 390.499939,254.059387 
	C389.776550,255.022141 389.506042,255.937531 389.009399,256.706940 
	C388.099579,258.116333 387.056305,259.439575 386.068695,260.798737 
	C385.645050,259.171814 385.033997,257.567688 384.832458,255.913696 
	C384.193542,250.669952 383.707489,245.407593 383.162354,240.152420 
	C383.120392,196.246185 383.078400,152.339951 383.036560,108.433716 
	C383.023071,94.296974 383.010071,80.160240 382.997070,65.562637 
	C396.157471,64.283623 404.701355,71.743782 411.105927,81.812363 
	C420.393433,96.413162 428.963165,111.469719 437.881348,126.306450 
	C451.689423,149.278168 465.686432,172.137833 479.325806,195.209076 
	C499.557556,229.431335 519.501587,263.823486 539.661133,298.088623 
	C547.759094,311.852600 556.059021,325.498627 564.353821,339.145599 
	C568.751343,346.380615 568.315430,349.229156 561.745056,354.164856 
	C535.410828,373.947449 509.106049,393.769318 482.753113,413.526978 
	C460.931580,429.887360 439.140778,446.290863 417.169434,462.448273 
	C407.259766,469.735718 396.535187,475.344360 383.315247,474.475952 
z"/>
<path fill="#FEECD9" opacity="1.000000" stroke="none" 
	d="
M492.497009,539.898315 
	C490.768463,538.144958 489.039886,536.391602 487.183105,534.010620 
	C486.769684,532.141846 486.897736,530.467102 486.128479,529.734070 
	C482.608276,526.379456 478.836609,523.288696 474.430725,519.476196 
	C474.038666,519.557495 472.295471,519.918762 470.552246,520.280029 
	C470.552246,520.280029 470.236847,520.181519 470.126770,519.658081 
	C470.165070,515.707275 468.997803,512.969177 465.403442,512.279236 
	C463.773560,511.966400 461.950439,512.660095 460.214996,512.897156 
	C459.930298,512.656311 459.645599,512.415466 459.133423,511.595947 
	C457.451691,510.442139 455.997467,509.867004 454.543213,509.291870 
	C451.586365,507.891815 448.629547,506.491730 445.293579,504.574890 
	C443.629883,503.363098 442.345337,502.668030 441.060791,501.972992 
	C440.894348,501.879272 440.727875,501.785522 440.196136,501.229706 
	C434.541809,498.866943 429.252716,496.966309 423.933411,494.774170 
	C423.605316,494.158630 423.307465,493.834625 423.009613,493.510620 
	C422.665771,493.980042 422.321960,494.449432 421.965454,495.143616 
	C421.952759,495.368408 422.004944,495.815674 422.004944,495.815674 
	C421.191071,495.635498 420.377228,495.455322 419.190552,494.886963 
	C418.865784,493.682709 418.913757,492.866669 418.961761,492.050598 
	C417.002563,489.246063 417.795807,487.365356 420.425690,485.234192 
	C428.733154,478.502106 436.441772,470.984070 445.052124,464.686188 
	C453.230652,458.704132 462.032135,453.464417 470.971985,448.666473 
	C478.439423,444.658752 486.503082,441.761932 495.051086,438.199036 
	C506.491608,438.680634 517.175903,439.649323 527.877808,439.919220 
	C544.153381,440.329681 557.914856,448.039581 570.883728,456.137512 
	C581.021057,462.467377 589.228149,472.018341 597.854797,480.579498 
	C601.779663,484.474548 604.645813,489.436401 607.747437,494.065063 
	C606.944397,494.969452 606.386230,495.723114 605.828003,496.476776 
	C605.666260,496.525726 605.504517,496.574677 604.817322,496.855072 
	C600.687805,499.937286 597.009827,502.700623 593.502808,505.666229 
	C590.646729,508.081329 588.337341,511.312134 585.192566,513.186523 
	C573.231262,520.316162 561.081909,527.137390 548.888550,533.867004 
	C544.694153,536.181946 540.165649,537.891846 535.789795,539.878113 
	C527.812073,541.942505 519.872498,544.175049 511.840790,546.001953 
	C507.697296,546.944397 503.389862,547.165833 498.743958,547.706787 
	C498.331421,547.700623 498.316254,547.227966 498.142944,546.745239 
	C497.415466,545.816040 496.861267,545.369629 496.307068,544.923218 
	C495.940857,544.482605 495.574677,544.041992 495.075958,543.028381 
	C494.127960,541.603027 493.312469,540.750671 492.497009,539.898315 
z"/>
<path fill="#E1CEB7" opacity="1.000000" stroke="none" 
	d="
M607.992188,493.914368 
	C604.645813,489.436401 601.779663,484.474548 597.854797,480.579498 
	C589.228149,472.018341 581.021057,462.467377 570.883728,456.137512 
	C557.914856,448.039581 544.153381,440.329681 527.877808,439.919220 
	C517.175903,439.649323 506.491608,438.680634 495.349731,438.026733 
	C497.159027,435.946045 499.412170,433.857117 501.678070,431.782196 
	C509.597137,424.530762 517.347107,417.082275 525.486755,410.087341 
	C535.414856,401.555542 545.684509,393.421783 555.781250,385.085419 
	C561.135864,380.664398 566.355286,376.074860 571.805237,371.776367 
	C573.827271,370.181549 576.231750,368.519104 578.651855,368.156616 
	C580.577820,367.868134 583.790405,368.889496 584.723938,370.391113 
	C593.164246,383.967438 601.149231,397.825470 609.423279,411.506805 
	C618.587769,426.660492 628.053589,441.633087 637.125854,456.841064 
	C643.652832,467.782440 649.730652,478.991333 656.050537,490.057068 
	C657.926697,493.342072 659.944092,496.546417 661.471313,500.224487 
	C657.328064,498.633606 653.610291,496.605957 649.892517,494.578278 
	C649.548462,494.370148 649.204468,494.161987 648.427979,493.626099 
	C647.291443,493.073669 646.587463,492.849030 645.883423,492.624390 
	C645.305420,492.331818 644.727356,492.039246 643.616943,491.428223 
	C641.355957,490.563141 639.627380,490.016449 637.898743,489.469788 
	C635.584167,489.422333 633.269531,489.374908 630.100525,489.284485 
	C622.161438,490.799103 615.076843,492.356720 607.992188,493.914368 
z"/>
<path fill="#1C263A" opacity="1.000000" stroke="none" 
	d="
M471.653748,703.626343 
	C466.163788,705.712952 461.037231,708.491211 455.653900,709.140442 
	C447.937286,710.070923 440.030121,709.332153 432.210754,709.544128 
	C429.066010,709.629395 428.208038,708.361633 428.217743,705.443237 
	C428.279236,686.965027 428.259857,668.486267 428.175110,650.008179 
	C428.162048,647.156189 429.358551,646.264160 432.062592,646.294800 
	C439.716003,646.381470 447.374207,646.158691 455.025085,646.319031 
	C461.677216,646.458435 468.048248,648.397644 470.760590,654.885315 
	C473.657898,661.815491 473.442505,668.966370 466.924286,674.468689 
	C466.564392,674.772522 466.360229,675.260803 465.830780,676.030945 
	C471.029144,679.256836 475.971954,683.259460 475.675903,689.793030 
	C475.468689,694.365356 473.232483,698.845642 471.653748,703.626343 
M466.470642,687.930054 
	C463.904388,683.230591 460.507111,679.729065 454.676727,679.698486 
	C450.028381,679.674072 445.370697,679.456970 440.738190,679.710144 
	C439.504303,679.777527 437.357239,681.211121 437.314636,682.098328 
	C437.014862,688.343201 437.155548,694.609192 437.155548,700.875916 
	C443.506104,700.875916 448.969025,701.120850 454.401947,700.821716 
	C463.864166,700.300781 465.914307,698.088867 466.470642,687.930054 
M438.057190,656.923584 
	C437.780304,661.987305 437.503418,667.051086 437.150482,673.505737 
	C444.813843,672.777344 451.530334,672.335693 458.186096,671.441895 
	C463.210144,670.767212 463.465179,666.802429 463.495697,662.722046 
	C463.527435,658.481384 462.022247,655.037170 457.622803,654.945618 
	C451.231049,654.812622 444.818909,655.661377 438.057190,656.923584 
z"/>
<path fill="#1A2438" opacity="1.000000" stroke="none" 
	d="
M201.289352,652.226440 
	C201.293716,650.264343 201.293716,648.769287 201.293716,646.598633 
	C203.364426,646.507629 205.397324,645.993469 207.149567,646.483337 
	C208.420074,646.838562 210.226212,648.508911 210.244400,649.618286 
	C210.451782,662.271973 210.968628,674.967834 210.192795,687.578003 
	C209.273514,702.520386 197.678375,711.101624 181.058929,710.351501 
	C167.241074,709.727722 157.244019,699.443726 157.016373,685.363464 
	C156.838577,674.366516 156.958771,663.364990 156.856003,652.366333 
	C156.824341,648.979065 157.364838,646.533081 161.603836,646.367981 
	C165.979858,646.197571 165.927963,649.130554 165.986252,651.941406 
	C166.176361,661.105225 166.165878,670.273254 166.378815,679.436279 
	C166.448090,682.417236 166.708038,685.442749 167.326706,688.353088 
	C169.418823,698.194946 175.368942,702.366089 185.847656,701.600586 
	C193.295441,701.056458 199.915710,694.044556 200.315628,685.671814 
	C200.840240,674.688721 200.979828,663.687134 201.289352,652.226440 
z"/>
<path fill="#1A2438" opacity="1.000000" stroke="none" 
	d="
M269.526733,673.341003 
	C273.053528,665.394531 276.504608,657.828674 279.730164,650.167847 
	C280.938263,647.298523 282.673553,646.239075 285.809021,646.240479 
	C289.016205,646.241882 290.897369,647.061401 292.353699,650.171448 
	C300.805878,668.221069 309.508606,686.153198 318.073669,704.150269 
	C318.747284,705.565735 319.018036,707.172913 319.488922,708.733704 
	C311.083801,710.510437 310.632019,710.317749 307.249664,703.945068 
	C306.392212,702.329468 305.437225,700.761841 304.652191,699.112610 
	C303.878723,697.487732 303.263916,695.787292 302.699615,694.412659 
	C292.590698,694.412659 282.640503,694.314941 272.697418,694.536987 
	C271.462128,694.564575 269.804047,696.043823 269.145172,697.278992 
	C267.748901,699.896301 267.216553,703.000366 265.683014,705.509521 
	C264.643982,707.209595 262.620392,709.174438 260.834717,709.397095 
	C254.183182,710.226379 253.470947,708.952515 256.256195,702.790833 
	C260.639038,693.094971 264.994385,683.386780 269.526733,673.341003 
M282.318115,663.803162 
	C279.340881,670.726624 276.363647,677.650024 273.188110,685.034668 
	C281.832031,685.034668 289.646149,685.034668 298.535980,685.034668 
	C294.482025,675.307678 290.774445,666.411743 286.469360,656.082214 
	C284.639893,659.453796 283.644226,661.288757 282.318115,663.803162 
z"/>
<path fill="#192438" opacity="1.000000" stroke="none" 
	d="
M596.363403,663.982178 
	C596.365234,679.257385 596.365234,694.030457 596.365234,709.135986 
	C593.273438,709.135986 590.693420,709.135986 587.012085,709.135986 
	C587.012085,691.432251 587.012085,673.745300 587.012085,655.995483 
	C581.035217,655.451355 576.130493,654.962463 571.217957,654.572205 
	C567.884399,654.307434 567.280334,652.332153 567.442871,649.421509 
	C567.626648,646.131348 569.835510,646.364319 572.032166,646.363831 
	C585.017578,646.361084 598.003296,646.406250 610.988281,646.327026 
	C613.969666,646.308899 615.529724,646.942505 615.558899,650.474854 
	C615.587585,653.944580 614.401184,655.387451 611.053467,655.362671 
	C606.418823,655.328430 601.783813,655.354065 596.361572,655.354065 
	C596.361572,658.312378 596.361572,660.896179 596.363403,663.982178 
z"/>
<path fill="#1B2539" opacity="1.000000" stroke="none" 
	d="
M377.242920,695.968384 
	C377.241547,700.582153 377.241547,704.702271 377.241547,708.719482 
	C368.279175,710.153931 367.799133,710.026550 367.657837,702.139526 
	C367.371918,686.177917 367.368286,670.209473 367.453369,654.244995 
	C367.465820,651.904053 367.981110,648.997864 369.427856,647.421753 
	C370.483490,646.271790 373.646698,646.304504 375.490814,646.929749 
	C376.497620,647.271118 377.199585,649.937744 377.212341,651.562256 
	C377.327271,666.198914 377.258911,680.837036 377.242920,695.968384 
z"/>
<path fill="#1B243A" opacity="1.000000" stroke="none" 
	d="
M517.612061,673.996216 
	C517.596191,666.163696 517.541809,658.830383 517.596741,651.497925 
	C517.615479,648.998718 517.501953,646.370483 521.326843,646.343567 
	C524.673584,646.320007 526.902161,647.456970 527.252563,650.941223 
	C527.618835,654.582458 527.913452,658.247437 527.935120,661.903809 
	C528.013123,675.069519 527.962585,688.236023 527.961182,701.402222 
	C527.960266,709.974121 527.960693,709.974121 518.507812,709.075317 
	C518.212830,697.632263 517.914673,686.063965 517.612061,673.996216 
z"/>
<path fill="#5C6552" opacity="1.000000" stroke="none" 
	d="
M271.237946,448.683929 
	C267.255737,449.029236 264.221924,448.786255 261.030762,444.455902 
	C257.098694,439.120087 250.339996,435.894196 244.915405,431.613861 
	C243.419342,430.433411 242.320206,428.748383 241.045822,427.288879 
	C239.289658,425.277710 237.760376,421.836517 235.744522,421.524658 
	C230.563629,420.723083 229.948975,415.868744 226.854874,413.506287 
	C222.940277,410.517334 218.318497,408.444580 213.956589,406.059143 
	C212.984283,405.527374 211.160751,405.636383 210.851959,404.947235 
	C207.375259,397.187897 200.482758,399.259460 195.330856,400.741455 
	C187.774612,402.915100 180.784973,407.067780 173.578934,410.430786 
	C173.035889,410.684235 172.447250,411.298279 172.294647,411.857849 
	C171.014862,416.550140 167.489288,417.195343 162.961548,416.899658 
	C164.264923,414.923279 165.704193,412.470184 167.841354,411.130005 
	C174.005081,407.264740 180.206497,403.296509 186.834824,400.368774 
	C201.238831,394.006531 214.382523,397.508270 226.415131,408.717224 
	C240.981613,422.286621 256.183319,435.174072 271.237946,448.683929 
z"/>
<path fill="#5C6552" opacity="1.000000" stroke="none" 
	d="
M128.755615,467.260223 
	C129.202362,468.681305 130.013550,470.598938 129.404877,471.792572 
	C127.264755,475.989532 124.620636,479.928101 122.207169,483.988129 
	C121.722427,484.803589 121.441750,485.737457 121.013535,486.589874 
	C119.194702,490.210571 117.541496,493.931030 115.483543,497.411469 
	C111.769196,503.693237 107.811859,509.831421 103.949516,516.025513 
	C100.558479,521.463867 96.689774,526.666382 93.878189,532.388733 
	C90.155060,539.966370 84.124100,546.314941 81.476517,554.248901 
	C79.778030,559.338745 76.917328,562.399963 72.348106,564.932312 
	C80.229851,550.559387 88.364693,536.065002 96.696236,521.684570 
	C107.203186,503.549347 117.870682,485.507141 128.755615,467.260223 
z"/>
<path fill="#5C6552" opacity="1.000000" stroke="none" 
	d="
M318.639282,474.055908 
	C316.776825,474.740662 314.229340,476.146881 312.637115,475.430359 
	C304.651855,471.836792 296.924988,467.670929 289.081421,463.758118 
	C288.222778,463.329803 287.203094,463.213135 286.249573,462.988007 
	C279.209625,461.325714 275.277191,456.188141 272.035339,449.868958 
	C282.141174,455.488495 292.089111,461.792877 302.391968,467.451019 
	C307.382935,470.191986 313.039551,471.720856 318.639282,474.055908 
z"/>
<path fill="#5C6552" opacity="1.000000" stroke="none" 
	d="
M71.716522,565.176758 
	C72.004280,568.731628 72.004280,572.455017 72.004280,576.452515 
	C64.896858,578.162720 64.299980,584.929199 62.112949,590.950745 
	C62.155613,591.362610 62.130051,591.690491 61.725136,591.850098 
	C60.553802,592.393311 59.787384,592.776917 59.020958,593.160522 
	C57.617783,594.477295 56.214615,595.794067 54.469997,597.086914 
	C59.895283,586.490479 65.662018,575.917908 71.716522,565.176758 
z"/>
<path fill="#353A48" opacity="1.000000" stroke="none" 
	d="
M649.933716,494.911438 
	C653.610291,496.605957 657.328064,498.633606 661.418335,500.604370 
	C664.129272,502.820526 666.467712,505.093536 668.873901,507.692200 
	C666.167908,507.430756 663.245850,507.194672 660.682129,506.111023 
	C659.365540,505.554565 658.813721,503.372009 657.689148,502.129913 
	C656.412964,500.720337 654.890747,499.531647 653.460449,498.263947 
	C652.310181,497.244385 651.137573,496.250092 649.933716,494.911438 
z"/>
<path fill="#D8D4C0" opacity="1.000000" stroke="none" 
	d="
M418.604065,491.992065 
	C418.913757,492.866669 418.865784,493.682709 418.908051,494.746185 
	C416.003418,493.929352 413.008514,492.865112 409.793213,491.525330 
	C412.463959,491.477722 415.355164,491.705627 418.604065,491.992065 
z"/>
<path fill="#5C6552" opacity="1.000000" stroke="none" 
	d="
M149.544373,432.918152 
	C149.832077,434.541779 150.333115,436.551880 149.631012,437.963623 
	C149.059555,439.112671 147.047119,439.545044 145.345856,440.151550 
	C146.424576,437.687225 147.831100,435.366608 149.544373,432.918152 
z"/>
<path fill="#5C6552" opacity="1.000000" stroke="none" 
	d="
M157.604401,421.978546 
	C158.203781,425.059082 157.545883,427.603638 153.337891,427.973145 
	C154.400391,426.013824 155.845856,424.052704 157.604401,421.978546 
z"/>
<path fill="#5C6552" opacity="1.000000" stroke="none" 
	d="
M161.687225,417.346558 
	C160.864410,418.822632 159.738861,420.383636 158.239655,421.932434 
	C159.038818,420.424011 160.211655,418.927765 161.687225,417.346558 
z"/>
<path fill="#5C6552" opacity="1.000000" stroke="none" 
	d="
M152.682587,428.106934 
	C152.162216,429.584625 151.353867,431.219971 150.160400,432.859558 
	C150.648407,431.330750 151.521515,429.797668 152.682587,428.106934 
z"/>
<path fill="#D8D4C0" opacity="1.000000" stroke="none" 
	d="
M406.900909,490.911926 
	C406.464020,491.154419 405.896423,491.172699 405.184326,491.011536 
	C405.616638,490.783966 406.193420,490.735809 406.900909,490.911926 
z"/>
<path fill="#3E424C" opacity="1.000000" stroke="none" 
	d="
M536.240967,539.888184 
	C540.165649,537.891846 544.694153,536.181946 548.888550,533.867004 
	C561.081909,527.137390 573.231262,520.316162 585.192566,513.186523 
	C588.337341,511.312134 590.646729,508.081329 593.502808,505.666229 
	C597.009827,502.700623 600.687805,499.937286 604.641602,497.037842 
	C601.155090,499.709076 598.887268,503.899750 595.212891,506.998138 
	C590.702209,510.801788 586.260986,514.736267 581.443176,518.208801 
	C580.106689,519.172119 578.591553,519.937866 577.417053,521.064087 
	C575.609070,522.797668 574.024353,524.764160 572.964539,525.942871 
	C569.856750,527.055115 566.477051,527.387390 564.330811,529.189026 
	C556.261963,535.962341 547.149780,539.539001 536.240967,539.888184 
z"/>
<path fill="#3E424C" opacity="1.000000" stroke="none" 
	d="
M607.747437,494.065063 
	C615.076843,492.356720 622.161438,490.799103 629.675537,489.379730 
	C626.900208,490.284668 623.696655,491.055969 620.490173,491.815308 
	C619.542725,492.039673 618.145447,491.900909 617.706909,492.489410 
	C614.752014,496.454651 610.480591,496.730988 605.989990,496.728149 
	C606.386230,495.723114 606.944397,494.969452 607.747437,494.065063 
z"/>
<path fill="#3E424C" opacity="1.000000" stroke="none" 
	d="
M638.027283,489.790924 
	C639.627380,490.016449 641.355957,490.563141 643.293701,491.379822 
	C641.720520,491.137268 639.938171,490.624664 638.027283,489.790924 
z"/>
<path fill="#3E424C" opacity="1.000000" stroke="none" 
	d="
M646.006470,492.895508 
	C646.587463,492.849030 647.291443,493.073669 648.132446,493.559021 
	C647.556152,493.602020 646.842834,493.384308 646.006470,492.895508 
z"/>
<path fill="#5D6C57" opacity="1.000000" stroke="none" 
	d="
M59.363663,593.157349 
	C59.787384,592.776917 60.553802,592.393311 61.664688,592.002930 
	C61.241554,592.382202 60.473957,592.768188 59.363663,593.157349 
z"/>
<path fill="#D8D4C0" opacity="1.000000" stroke="none" 
	d="
M470.723450,520.574829 
	C472.295471,519.918762 474.038666,519.557495 474.430725,519.476196 
	C478.836609,523.288696 482.608276,526.379456 486.128479,529.734070 
	C486.897736,530.467102 486.769684,532.141846 487.003723,533.730835 
	C481.599915,529.675720 476.247314,525.272644 470.723450,520.574829 
z"/>
<path fill="#D8D4C0" opacity="1.000000" stroke="none" 
	d="
M460.291962,513.223755 
	C461.950439,512.660095 463.773560,511.966400 465.403442,512.279236 
	C468.997803,512.969177 470.165070,515.707275 470.022858,519.529663 
	C466.809021,517.799805 463.588989,515.675049 460.291962,513.223755 
z"/>
<path fill="#D8D4C0" opacity="1.000000" stroke="none" 
	d="
M423.963623,495.065674 
	C429.252716,496.966309 434.541809,498.866943 439.970947,501.052460 
	C434.263519,499.659943 428.416046,497.982605 422.286743,496.060486 
	C422.004944,495.815674 421.952759,495.368408 422.295868,495.179718 
	C423.080536,495.015900 423.522064,495.040771 423.963623,495.065674 
z"/>
<path fill="#D8D4C0" opacity="1.000000" stroke="none" 
	d="
M454.735901,509.563232 
	C455.997467,509.867004 457.451691,510.442139 459.014099,511.339294 
	C457.724396,511.052429 456.326508,510.443512 454.735901,509.563232 
z"/>
<path fill="#D8D4C0" opacity="1.000000" stroke="none" 
	d="
M441.135406,502.288300 
	C442.345337,502.668030 443.629883,503.363098 444.995331,504.363831 
	C443.787506,503.980896 442.498749,503.292236 441.135406,502.288300 
z"/>
<path fill="#D8D4C0" opacity="1.000000" stroke="none" 
	d="
M492.451416,540.208008 
	C493.312469,540.750671 494.127960,541.603027 494.945862,542.773010 
	C494.100800,542.233032 493.253296,541.375366 492.451416,540.208008 
z"/>
<path fill="#D8D4C0" opacity="1.000000" stroke="none" 
	d="
M496.284363,545.232056 
	C496.861267,545.369629 497.415466,545.816040 498.021973,546.541992 
	C497.470062,546.394714 496.865845,545.967773 496.284363,545.232056 
z"/>
<path fill="#FEFEFC" opacity="1.000000" stroke="none" 
	d="
M348.041077,258.780823 
	C349.123505,258.718201 350.205933,258.655579 351.720154,259.069580 
	C355.282471,262.345093 367.231018,264.132477 370.333191,262.138763 
	C370.617218,261.956238 370.238190,260.741974 370.105957,259.638123 
	C369.929871,258.533783 369.814850,257.798187 370.022827,256.805450 
	C370.552826,255.098938 370.637238,253.618912 370.990234,252.205994 
	C371.962891,248.312805 373.047974,244.447693 374.088562,240.571472 
	C374.527069,240.620773 374.965576,240.670059 375.747925,241.207504 
	C379.188080,244.121780 380.427032,246.779922 379.266144,251.048782 
	C378.175140,255.060638 376.362030,259.899231 381.714966,263.378113 
	C383.346527,263.838104 384.661469,264.049530 386.148621,264.432556 
	C386.886475,264.474335 387.452148,264.344543 388.389130,264.150024 
	C389.660797,262.432373 390.561157,260.779480 391.770111,258.957825 
	C393.402405,253.694794 394.726166,248.600494 396.445160,243.460724 
	C397.895294,243.471008 398.950195,243.526779 400.191254,243.695923 
	C400.377441,243.809311 400.809387,243.888107 400.809387,243.888107 
	C400.809387,243.888107 401.238159,243.793182 401.610535,243.755280 
	C402.717041,243.628586 403.451172,243.539795 404.185333,243.450989 
	C404.185333,243.450989 404.108215,243.698410 404.053864,244.252884 
	C404.264160,247.207901 404.528809,249.608459 404.791748,252.474884 
	C404.720123,256.193604 404.840729,259.464813 404.529175,262.694336 
	C404.185486,266.257324 405.510040,268.295258 409.196777,269.126953 
	C409.719147,269.429596 410.081726,269.493561 410.718689,269.580963 
	C411.343597,269.712524 411.694061,269.820679 412.043518,270.298401 
	C415.407196,275.842957 420.448914,277.579559 426.327728,277.655212 
	C426.341705,277.681885 426.378754,277.729431 426.269897,278.042480 
	C426.429260,278.908661 426.697510,279.461792 427.024811,280.356262 
	C428.114777,281.434692 429.145630,282.171814 430.364868,283.047180 
	C430.774933,283.416443 430.921204,283.688049 430.979919,284.466003 
	C431.353394,289.633911 431.738922,294.336090 432.068298,299.381592 
	C431.333801,301.150085 430.655457,302.575287 429.642212,304.147522 
	C426.870117,305.042969 425.305298,306.343018 426.201019,309.219543 
	C426.197327,309.237823 426.230652,309.262939 425.819458,309.194946 
	C423.166656,309.878906 420.382568,310.079376 418.867645,311.569855 
	C417.795410,312.624786 417.750671,316.904602 418.424866,317.218872 
	C425.656250,320.590179 430.826172,326.219604 435.953491,332.367493 
	C436.008820,333.120941 435.990997,333.555786 435.819794,334.083984 
	C435.771790,334.453400 435.877167,334.729462 436.030823,335.456482 
	C436.014771,338.919830 435.950439,341.932190 435.508575,344.932709 
	C434.427216,344.360046 433.749359,343.762115 433.013336,343.247253 
	C431.955719,342.507416 430.855774,341.828094 429.773895,341.122955 
	C429.214996,342.495148 428.225586,343.869385 428.232178,345.238861 
	C428.237549,346.352753 429.239105,347.668091 430.144867,348.530884 
	C432.428375,350.706238 431.888123,352.004425 429.721771,354.129974 
	C427.948547,355.869751 427.325409,358.781708 426.161011,361.163818 
	C426.129639,361.153625 426.107666,361.091370 425.711548,361.059326 
	C422.529236,362.667694 419.743042,364.308075 416.601624,365.914398 
	C414.853058,365.610229 413.459717,365.340118 411.655518,365.050842 
	C409.493958,365.680969 407.743317,366.330200 405.619202,366.985107 
	C404.498474,366.986053 403.751190,366.981354 402.702209,366.707092 
	C397.997284,365.695129 393.014740,364.659943 390.648529,369.449921 
	C389.130035,372.523804 389.619293,376.589508 389.258606,380.532074 
	C389.780121,381.279785 390.251587,381.706055 390.614319,382.520508 
	C390.422699,384.252045 390.339813,385.595398 389.877411,387.004150 
	C387.661133,387.700256 385.824371,388.330933 383.625824,388.873169 
	C382.529419,388.680054 381.794830,388.575378 380.983032,388.158325 
	C380.302673,384.899872 379.699463,381.953827 379.175995,378.582031 
	C379.506256,375.559570 380.035614,372.948120 379.899536,370.371826 
	C379.821686,368.897797 378.661194,367.480957 377.973938,365.643494 
	C376.629669,361.342285 373.521210,362.711792 371.666748,363.907806 
	C369.995178,364.985809 368.802887,367.454834 368.318024,369.525543 
	C367.909576,371.270050 368.821075,373.323669 369.134277,375.646851 
	C368.987396,377.671112 368.854523,379.288971 368.422211,380.995361 
	C366.737549,382.708435 365.352386,384.332947 363.662140,386.083496 
	C363.183990,386.345520 363.010956,386.481445 362.620941,386.501038 
	C362.403992,386.384674 361.991302,386.116180 361.918091,385.741638 
	C360.880219,383.962830 359.232635,382.626648 359.084595,381.140991 
	C358.706970,377.351074 358.508698,373.408539 359.161591,369.689056 
	C359.798645,366.059875 357.925201,364.289337 355.443634,363.142181 
	C352.938202,361.984070 349.912567,361.990509 347.330505,360.951019 
	C341.753632,358.706024 333.018066,361.897888 331.689453,352.116425 
	C331.679260,352.041351 331.393280,352.003754 331.193390,351.624878 
	C331.265778,350.883789 331.380859,350.466492 331.871429,350.040009 
	C335.455292,349.350739 338.638947,348.277435 341.877258,348.074249 
	C348.189545,347.678101 350.684723,345.270660 351.001068,338.892212 
	C351.254913,333.774567 351.857910,328.674835 352.276581,323.564728 
	C353.199493,312.300720 354.121338,301.036560 355.001282,289.769165 
	C355.181793,287.457916 355.106445,285.127045 355.274658,282.814362 
	C355.499542,279.721802 355.847107,276.638092 356.049500,274.518860 
	C351.748230,272.582153 348.540100,271.397736 345.612823,269.722473 
	C343.844147,268.710297 342.511444,266.936340 340.982849,265.504669 
	C342.576111,263.974060 344.166504,262.440369 345.763977,260.914185 
	C346.515991,260.195709 347.281616,259.491486 348.041077,258.780823 
M407.751770,290.145294 
	C407.751770,290.145294 407.730286,290.183594 407.944885,289.492523 
	C408.663116,285.256042 403.662537,278.607574 399.080719,278.136627 
	C393.684021,277.581970 388.253174,277.267242 382.829834,277.121277 
	C381.206665,277.077606 379.558929,277.947784 377.479553,278.738312 
	C377.320709,278.834900 377.161835,278.931458 376.274506,279.173157 
	C376.185150,281.446167 376.095825,283.719208 376.095581,286.738831 
	C375.998352,287.479156 375.901093,288.219482 375.095428,289.182953 
	C373.598175,294.124023 371.309174,299.074188 375.572327,304.256012 
	C375.723053,304.501251 375.867004,304.750366 376.449158,305.579163 
	C386.671631,309.842529 396.747772,308.991089 406.378571,304.030640 
	C407.873749,303.260498 408.069000,299.966492 408.962769,297.036743 
	C408.986725,295.687225 409.010651,294.337677 409.461395,292.609711 
	C408.902344,291.794952 408.343262,290.980194 407.751770,290.145294 
M373.235382,351.863739 
	C381.391602,352.059204 389.547516,352.277100 397.704895,352.386566 
	C398.130737,352.392303 398.568939,351.475342 399.447937,350.737488 
	C399.782654,350.684540 400.117340,350.631592 401.341125,350.811340 
	C407.934753,351.059601 409.447388,349.869232 410.101044,343.533295 
	C410.101044,343.533295 410.307770,343.101624 410.979767,342.930481 
	C411.942841,340.853882 414.152679,338.351135 413.617889,336.786499 
	C412.379974,333.164673 410.544495,329.010986 407.632324,326.852448 
	C401.771942,322.508545 395.003082,319.223846 387.601349,318.299805 
	C384.158600,317.869965 380.550873,318.761871 376.354767,319.199249 
	C375.905365,319.164581 375.455994,319.129913 374.668243,318.611786 
	C374.162262,319.147461 373.656281,319.683167 373.169067,320.630371 
	C373.169067,320.630371 372.996155,321.004333 372.239319,321.179504 
	C371.859406,321.863708 371.210388,322.521790 371.141083,323.236115 
	C370.410858,330.763489 369.620972,338.291321 369.200470,345.838715 
	C369.070221,348.176422 369.434174,350.994965 373.235382,351.863739 
z"/>
<path fill="#F3DECF" opacity="1.000000" stroke="none" 
	d="
M347.697876,258.587341 
	C347.281616,259.491486 346.515991,260.195709 345.763977,260.914185 
	C344.166504,262.440369 342.576111,263.974060 340.982849,265.504669 
	C342.511444,266.936340 343.844147,268.710297 345.612823,269.722473 
	C348.540100,271.397736 351.748230,272.582153 356.049500,274.518860 
	C355.847107,276.638092 355.499542,279.721802 355.274658,282.814362 
	C355.106445,285.127045 355.181793,287.457916 355.001282,289.769165 
	C354.121338,301.036560 353.199493,312.300720 352.276581,323.564728 
	C351.857910,328.674835 351.254913,333.774567 351.001068,338.892212 
	C350.684723,345.270660 348.189545,347.678101 341.877258,348.074249 
	C338.638947,348.277435 335.455292,349.350739 331.767303,349.703308 
	C331.195160,348.916534 331.102600,348.457275 331.010040,347.997986 
	C331.794067,347.381531 332.578064,346.765076 334.121948,346.192444 
	C345.497833,347.175629 347.808228,346.167755 348.667969,333.641205 
	C348.758728,332.318695 348.602509,330.976776 348.726166,329.659363 
	C350.243042,313.500214 351.661957,297.329865 353.425995,281.197418 
	C353.839630,277.414856 352.145020,275.517090 349.270660,274.286072 
	C347.346619,273.462067 345.129486,273.322571 343.043488,272.876801 
	C341.907501,272.675812 340.771545,272.474823 339.342407,271.719696 
	C338.893799,270.039612 338.738373,268.913605 338.582947,267.787628 
	C338.600067,267.296753 338.626678,266.806030 338.632812,266.315002 
	C338.738159,257.919861 338.737610,257.919861 347.697876,258.587341 
z"/>
<path fill="#976146" opacity="1.000000" stroke="none" 
	d="
M343.096588,273.230652 
	C345.129486,273.322571 347.346619,273.462067 349.270660,274.286072 
	C352.145020,275.517090 353.839630,277.414856 353.425995,281.197418 
	C351.661957,297.329865 350.243042,313.500214 348.726166,329.659363 
	C348.602509,330.976776 348.758728,332.318695 348.667969,333.641205 
	C347.808228,346.167755 345.497833,347.175629 334.436737,346.116943 
	C334.537750,342.281769 337.451294,342.971985 339.804749,343.075165 
	C343.583954,343.240845 345.845154,341.888672 346.238312,337.916321 
	C346.790039,332.341644 347.591034,326.787384 347.998901,321.203491 
	C348.961060,308.030151 349.975342,294.851410 350.389557,281.656677 
	C350.456024,279.539978 347.631317,277.249115 345.943573,275.203339 
	C345.301544,274.425110 344.097565,274.110413 343.096588,273.230652 
z"/>
<path fill="#F3DECF" opacity="1.000000" stroke="none" 
	d="
M331.236084,351.948639 
	C331.393280,352.003754 331.679260,352.041351 331.689453,352.116425 
	C333.018066,361.897888 341.753632,358.706024 347.330505,360.951019 
	C349.912567,361.990509 352.938202,361.984070 355.443634,363.142181 
	C357.925201,364.289337 359.798645,366.059875 359.161591,369.689056 
	C358.508698,373.408539 358.706970,377.351074 359.084595,381.140991 
	C359.232635,382.626648 360.880219,383.962830 361.496094,385.853333 
	C357.578491,386.803253 355.959381,385.446014 356.112030,381.647522 
	C356.327240,376.291473 356.166534,370.920288 356.166534,365.063751 
	C348.364227,363.936798 340.204987,362.758331 332.045776,361.579834 
	C332.045776,361.579834 331.871490,361.529083 331.676849,361.240143 
	C331.400177,357.950348 331.318146,354.949493 331.236084,351.948639 
z"/>
<path fill="#8B4F36" opacity="1.000000" stroke="none" 
	d="
M332.069214,361.999329 
	C340.204987,362.758331 348.364227,363.936798 356.166534,365.063751 
	C356.166534,370.920288 356.327240,376.291473 356.112030,381.647522 
	C355.959381,385.446014 357.578491,386.803253 361.569305,386.227905 
	C361.991302,386.116180 362.403992,386.384674 362.627380,386.713623 
	C362.952728,387.307770 363.020233,387.581421 363.053314,387.863556 
	C360.519928,388.201904 357.798065,389.238373 355.521942,388.623871 
	C354.095306,388.238647 352.931213,385.478699 352.429474,383.578278 
	C352.111053,382.372223 353.335236,380.814117 353.678955,379.368988 
	C355.867645,370.166565 353.433319,366.827362 344.082855,365.993500 
	C341.130615,365.730225 338.147278,365.512970 335.268951,364.868958 
	C334.086670,364.604431 333.144226,363.267792 332.069214,361.999329 
z"/>
<path fill="#BC8A71" opacity="1.000000" stroke="none" 
	d="
M391.461548,259.126556 
	C390.561157,260.779480 389.660797,262.432373 388.052185,264.048035 
	C386.888123,264.094208 386.432281,264.177582 385.976440,264.260986 
	C384.661469,264.049530 383.346527,263.838104 381.855713,262.923340 
	C381.827698,259.066132 382.061554,255.913361 382.101440,252.758133 
	C382.150879,248.847061 382.039642,244.933975 381.997803,241.021759 
	C382.221313,240.777603 382.444824,240.533463 382.915344,240.220871 
	C383.707489,245.407593 384.193542,250.669952 384.832458,255.913696 
	C385.033997,257.567688 385.645050,259.171814 386.068695,260.798737 
	C387.056305,259.439575 388.099579,258.116333 389.009399,256.706940 
	C389.506042,255.937531 389.776550,255.022141 390.581665,254.489319 
	C391.163361,256.246246 391.312439,257.686401 391.461548,259.126556 
z"/>
<path fill="#F3DECF" opacity="1.000000" stroke="none" 
	d="
M381.568298,240.997284 
	C382.039642,244.933975 382.150879,248.847061 382.101440,252.758133 
	C382.061554,255.913361 381.827698,259.066132 381.539124,262.674774 
	C376.362030,259.899231 378.175140,255.060638 379.266144,251.048782 
	C380.427032,246.779922 379.188080,244.121780 376.050171,241.348450 
	C377.718628,240.991760 379.428741,240.982285 381.568298,240.997284 
z"/>
<path fill="#AD7F6A" opacity="1.000000" stroke="none" 
	d="
M377.988159,366.038391 
	C378.661194,367.480957 379.821686,368.897797 379.899536,370.371826 
	C380.035614,372.948120 379.506256,375.559570 378.932129,378.591309 
	C378.608551,379.026306 378.120758,379.028931 378.120758,379.028931 
	C377.806915,377.464630 377.074371,375.849731 377.256195,374.345337 
	C377.847809,369.450256 375.664734,368.030670 370.701813,368.656860 
	C372.781891,367.590759 375.385040,366.814575 377.988159,366.038391 
z"/>
<path fill="#AD7F6A" opacity="1.000000" stroke="none" 
	d="
M363.474487,387.878296 
	C363.020233,387.581421 362.952728,387.307770 362.844360,386.829987 
	C363.010956,386.481445 363.183990,386.345520 364.076080,386.182770 
	C369.279755,386.781860 369.167755,383.969269 368.721680,380.906799 
	C368.854523,379.288971 368.987396,377.671112 369.387085,375.577515 
	C369.825470,375.068085 369.997040,375.034454 370.168640,375.000793 
	C371.017395,379.296082 371.866150,383.591370 372.820587,388.421570 
	C369.353241,388.216248 366.624420,388.054657 363.474487,387.878296 
z"/>
<path fill="#F3DECF" opacity="1.000000" stroke="none" 
	d="
M373.757324,240.379608 
	C373.047974,244.447693 371.962891,248.312805 370.990234,252.205994 
	C370.637238,253.618912 370.552826,255.098938 369.851318,256.801941 
	C369.356781,257.055511 369.019348,256.982697 369.019348,256.982697 
	C369.019348,251.613022 369.019348,246.243332 369.019348,240.393204 
	C370.679565,240.315811 372.052795,240.251785 373.757324,240.379608 
z"/>
<path fill="#F3DECF" opacity="1.000000" stroke="none" 
	d="
M370.167053,260.006805 
	C370.238190,260.741974 370.617218,261.956238 370.333191,262.138763 
	C367.231018,264.132477 355.282471,262.345093 352.118408,259.161194 
	C355.108185,259.152496 358.131409,259.528687 361.832062,260.259460 
	C365.061981,260.411591 367.614532,260.209198 370.167053,260.006805 
z"/>
<path fill="#8B4F36" opacity="1.000000" stroke="none" 
	d="
M331.193359,351.624878 
	C331.318146,354.949493 331.400177,357.950348 331.621643,361.312195 
	C326.705627,360.871094 325.447449,359.181549 327.011017,354.691437 
	C327.810608,352.395294 329.171600,350.294647 330.644440,348.051819 
	C331.102600,348.457275 331.195160,348.916534 331.391815,349.712524 
	C331.380859,350.466492 331.265778,350.883789 331.193359,351.624878 
z"/>
<path fill="#F3DECF" opacity="1.000000" stroke="none" 
	d="
M370.199585,374.580750 
	C369.997040,375.034454 369.825470,375.068085 369.401093,375.171082 
	C368.821075,373.323669 367.909576,371.270050 368.318024,369.525543 
	C368.802887,367.454834 369.995178,364.985809 371.666748,363.907806 
	C373.521210,362.711792 376.629669,361.342285 377.973938,365.643494 
	C375.385040,366.814575 372.781891,367.590759 370.283203,368.742126 
	C370.335266,370.798462 370.282898,372.479584 370.199585,374.580750 
z"/>
<path fill="#E9CBBA" opacity="1.000000" stroke="none" 
	d="
M378.072510,379.470825 
	C378.120758,379.028931 378.608551,379.026306 378.852417,379.017029 
	C379.699463,381.953827 380.302673,384.899872 380.693604,388.298584 
	C380.297943,388.862396 380.114563,388.973511 379.931213,389.084595 
	C379.295563,386.027283 378.659912,382.970001 378.072510,379.470825 
z"/>
<path fill="#AD7F6A" opacity="1.000000" stroke="none" 
	d="
M380.027802,389.387390 
	C380.114563,388.973511 380.297943,388.862396 380.770782,388.610962 
	C381.794830,388.575378 382.529419,388.680054 383.878021,389.147186 
	C385.986969,389.657043 387.481964,389.804443 388.976929,389.951843 
	C387.296967,390.617065 385.617004,391.282318 383.571136,391.934143 
	C382.178284,391.177216 381.151337,390.433685 380.027802,389.387390 
z"/>
<path fill="#BC8A71" opacity="1.000000" stroke="none" 
	d="
M370.105957,259.638123 
	C367.614532,260.209198 365.061981,260.411591 362.250427,260.317261 
	C364.219910,259.232117 366.448395,258.443665 368.848114,257.318970 
	C369.019348,256.982697 369.356781,257.055511 369.528320,257.059021 
	C369.814850,257.798187 369.929871,258.533783 370.105957,259.638123 
z"/>
<path fill="#BC8A71" opacity="1.000000" stroke="none" 
	d="
M338.265015,267.907440 
	C338.738373,268.913605 338.893799,270.039612 339.009918,271.593689 
	C338.629425,270.690247 338.288269,269.358765 338.265015,267.907440 
z"/>
<path fill="#BC8A71" opacity="1.000000" stroke="none" 
	d="
M337.509521,258.463257 
	C337.558502,258.441132 337.460510,258.485413 337.509521,258.463257 
z"/>
<path fill="#BC8A71" opacity="1.000000" stroke="none" 
	d="
M412.044556,269.928833 
	C411.694061,269.820679 411.343597,269.712524 410.527527,269.389893 
	C409.720306,269.079712 409.378632,268.984009 409.036957,268.888306 
	C405.510040,268.295258 404.185486,266.257324 404.529175,262.694336 
	C404.840729,259.464813 404.720123,256.193604 404.922668,252.144821 
	C405.312927,250.229980 405.570587,249.111099 405.828186,247.992218 
	C406.359650,249.034363 407.233185,250.042175 407.341980,251.126724 
	C407.503204,252.733856 407.009277,254.394165 406.991150,256.034027 
	C406.904999,263.820282 407.001282,263.627930 414.181549,266.330353 
	C416.981171,267.384033 419.372528,269.522369 421.965118,271.599579 
	C421.980377,272.032501 421.810577,272.236298 421.430725,272.169128 
	C418.048737,271.377594 415.046661,270.653229 412.044556,269.928833 
z"/>
<path fill="#F9E3D4" opacity="1.000000" stroke="none" 
	d="
M435.880341,332.048828 
	C430.826172,326.219604 425.656250,320.590179 418.424866,317.218872 
	C417.750671,316.904602 417.795410,312.624786 418.867645,311.569855 
	C420.382568,310.079376 423.166656,309.878906 425.813019,309.566345 
	C423.978943,311.678802 421.740051,313.351898 418.713409,315.613678 
	C421.817627,316.541382 424.380920,317.307434 426.944244,318.073486 
	C426.944244,318.073486 427.007965,318.019562 427.105286,318.345947 
	C429.716888,320.905975 432.231171,323.139679 434.745422,325.373352 
	C434.745422,325.373352 434.840454,325.710114 434.935181,326.236511 
	C435.313385,328.524902 435.596863,330.286865 435.880341,332.048828 
z"/>
<path fill="#F9E3D4" opacity="1.000000" stroke="none" 
	d="
M426.192413,361.174011 
	C427.325409,358.781708 427.948547,355.869751 429.721771,354.129974 
	C431.888123,352.004425 432.428375,350.706238 430.144867,348.530884 
	C429.239105,347.668091 428.237549,346.352753 428.232178,345.238861 
	C428.225586,343.869385 429.214996,342.495148 429.773895,341.122955 
	C430.855774,341.828094 431.955719,342.507416 433.013336,343.247253 
	C433.749359,343.762115 434.427216,344.360046 435.566467,345.333649 
	C435.582428,348.120239 435.162964,350.494019 434.743469,352.867828 
	C434.743469,352.867828 434.579254,353.164978 434.315857,353.493958 
	C433.681824,354.533417 433.311249,355.243927 432.940643,355.954437 
	C432.940643,355.954437 432.995148,356.002960 432.663208,356.115356 
	C430.285004,357.876526 428.238708,359.525269 426.192413,361.174011 
z"/>
<path fill="#FEF3E4" opacity="1.000000" stroke="none" 
	d="
M389.208557,380.210602 
	C389.619293,376.589508 389.130035,372.523804 390.648529,369.449921 
	C393.014740,364.659943 397.997284,365.695129 402.693176,366.976318 
	C402.960938,367.871704 402.935944,368.228271 402.575775,368.682678 
	C401.810822,368.949677 401.381073,369.118805 400.951294,369.287964 
	C400.233795,369.288147 399.516266,369.288361 398.072449,369.259460 
	C395.735474,369.763428 394.124786,370.296478 392.284729,370.935638 
	C392.072937,371.698059 392.090546,372.354370 392.131592,373.370087 
	C392.288635,374.186035 392.422272,374.642578 392.555908,375.099121 
	C392.477753,375.250519 392.399567,375.401947 391.950073,376.002838 
	C390.788666,377.705109 389.998627,378.957855 389.208557,380.210602 
z"/>
<path fill="#BC8A71" opacity="1.000000" stroke="none" 
	d="
M435.138977,352.826599 
	C435.162964,350.494019 435.582428,348.120239 435.944031,345.345490 
	C435.950439,341.932190 436.014771,338.919830 436.086121,335.202209 
	C436.053192,334.328217 436.013214,334.159424 435.973206,333.990601 
	C435.990997,333.555786 436.008820,333.120941 435.953491,332.367493 
	C435.596863,330.286865 435.313385,328.524902 435.041199,326.375702 
	C435.792450,326.574646 437.101898,327.089203 437.185974,327.757843 
	C438.246857,336.192169 439.331451,344.662598 435.138977,352.826599 
z"/>
<path fill="#BC8A71" opacity="1.000000" stroke="none" 
	d="
M426.966522,317.646851 
	C424.380920,317.307434 421.817627,316.541382 418.713409,315.613678 
	C421.740051,313.351898 423.978943,311.678802 426.224243,309.634338 
	C426.230652,309.262939 426.197327,309.237823 426.525024,309.166443 
	C427.495819,308.951080 428.138916,308.807068 428.781982,308.663025 
	C428.184265,311.515442 427.586548,314.367798 426.966522,317.646851 
z"/>
<path fill="#F3DECF" opacity="1.000000" stroke="none" 
	d="
M391.770081,258.957825 
	C391.312439,257.686401 391.163361,256.246246 390.932556,254.376144 
	C390.945282,253.217148 391.039673,252.488098 391.334717,251.103165 
	C391.602142,249.270065 391.668945,248.092834 391.735748,246.915604 
	C392.257629,245.648148 392.779480,244.380707 393.976959,243.097076 
	C395.118347,243.222656 395.584106,243.364426 396.049896,243.506195 
	C394.726166,248.600494 393.402405,253.694794 391.770081,258.957825 
z"/>
<path fill="#BC8A71" opacity="1.000000" stroke="none" 
	d="
M430.991943,284.000336 
	C430.921204,283.688049 430.774933,283.416443 430.347137,282.724762 
	C429.738342,281.510895 429.335602,280.757721 428.842163,279.714233 
	C427.960571,278.859100 427.169678,278.294281 426.378754,277.729431 
	C426.378754,277.729431 426.341705,277.681885 426.280975,277.335938 
	C424.750336,275.405457 423.280457,273.820892 421.810577,272.236298 
	C421.810577,272.236298 421.980377,272.032501 422.066895,271.929626 
	C427.964050,274.248505 432.129303,278.141174 433.020508,284.648285 
	C432.020508,284.513550 431.506226,284.256927 430.991943,284.000336 
z"/>
<path fill="#BC8A71" opacity="1.000000" stroke="none" 
	d="
M426.161011,361.163818 
	C428.238708,359.525269 430.285004,357.876526 432.640442,356.087708 
	C432.821655,362.020203 430.668915,364.292664 423.119507,365.641418 
	C422.732330,365.367004 422.682617,364.924316 422.918976,364.686798 
	C424.139465,363.329987 425.123566,362.210693 426.107666,361.091370 
	C426.107666,361.091370 426.129639,361.153625 426.161011,361.163818 
z"/>
<path fill="#F9E3D4" opacity="1.000000" stroke="none" 
	d="
M430.979919,284.466003 
	C431.506226,284.256927 432.020508,284.513550 432.802429,284.881104 
	C433.139740,285.425720 433.209412,285.859375 433.290894,286.881653 
	C433.508789,287.980621 433.714935,288.490906 433.921051,289.001221 
	C433.950104,289.745209 433.979126,290.489227 433.982483,291.940247 
	C434.019470,293.108673 434.082184,293.570038 434.144897,294.031403 
	C434.089142,294.774902 434.033356,295.518433 433.760376,296.811768 
	C433.070221,297.920502 432.597321,298.479401 432.124390,299.038300 
	C431.738922,294.336090 431.353394,289.633911 430.979919,284.466003 
z"/>
<path fill="#BC8A71" opacity="1.000000" stroke="none" 
	d="
M432.068268,299.381592 
	C432.597321,298.479401 433.070221,297.920502 433.763977,297.185150 
	C434.646515,300.880341 434.570374,304.506897 430.297241,306.564728 
	C429.917206,305.502808 429.947144,304.751648 429.977112,304.000488 
	C430.655457,302.575287 431.333801,301.150085 432.068268,299.381592 
z"/>
<path fill="#BC8A71" opacity="1.000000" stroke="none" 
	d="
M396.445160,243.460724 
	C395.584106,243.364426 395.118347,243.222656 394.303711,242.967773 
	C397.354584,239.990433 401.979584,239.960464 404.128967,243.120056 
	C403.451172,243.539795 402.717041,243.628586 401.432373,243.607758 
	C400.572174,243.345810 400.279907,243.373932 400.005066,243.582520 
	C398.950195,243.526779 397.895294,243.471008 396.445160,243.460724 
z"/>
<path fill="#FEF3E4" opacity="1.000000" stroke="none" 
	d="
M425.711548,361.059326 
	C425.123566,362.210693 424.139465,363.329987 422.600586,364.700928 
	C421.362457,365.370605 420.679077,365.788635 419.995667,366.206665 
	C419.995667,366.206665 419.791443,366.389709 419.234741,366.254883 
	C418.104340,366.062836 417.530579,366.005646 416.956848,365.948456 
	C419.743042,364.308075 422.529236,362.667694 425.711548,361.059326 
z"/>
<path fill="#BC8A71" opacity="1.000000" stroke="none" 
	d="
M434.792358,324.995911 
	C432.231171,323.139679 429.716888,320.905975 427.069855,318.365753 
	C431.881927,317.461761 433.073700,321.385773 434.792358,324.995911 
z"/>
<path fill="#BC8A71" opacity="1.000000" stroke="none" 
	d="
M392.838837,374.969269 
	C392.422272,374.642578 392.288635,374.186035 392.328003,373.145355 
	C392.505341,371.983978 392.509705,371.406738 392.514069,370.829529 
	C394.124786,370.296478 395.735474,369.763428 397.727295,369.363708 
	C396.446228,371.277802 394.783997,373.058624 392.838837,374.969269 
z"/>
<path fill="#BC8A71" opacity="1.000000" stroke="none" 
	d="
M390.256897,386.938721 
	C390.339813,385.595398 390.422699,384.252045 390.854706,382.444519 
	C391.587708,381.630402 391.971619,381.280487 392.355499,380.930542 
	C395.467896,383.153412 393.561310,384.983704 391.322784,386.885406 
	C390.751709,386.938110 390.256897,386.938721 390.256897,386.938721 
z"/>
<path fill="#FEF3E4" opacity="1.000000" stroke="none" 
	d="
M405.992676,366.979431 
	C407.743317,366.330200 409.493958,365.680969 411.638367,365.421234 
	C412.025726,366.556274 412.019318,367.301788 412.012939,368.047333 
	C411.278748,368.151215 410.544586,368.255096 409.082947,368.313751 
	C407.561493,368.213745 406.767548,368.158905 405.981476,367.822937 
	C405.990479,367.354340 405.991577,367.166870 405.992676,366.979431 
z"/>
<path fill="#E9CBBA" opacity="1.000000" stroke="none" 
	d="
M389.877380,387.004150 
	C390.256897,386.938721 390.751709,386.938110 390.998352,386.965027 
	C390.694031,387.893890 390.143097,388.795868 389.284546,389.824829 
	C387.481964,389.804443 385.986969,389.657043 384.239807,389.235626 
	C385.824371,388.330933 387.661133,387.700256 389.877380,387.004150 
z"/>
<path fill="#F9E3D4" opacity="1.000000" stroke="none" 
	d="
M429.642212,304.147522 
	C429.947144,304.751648 429.917206,305.502808 429.947144,306.626343 
	C429.694824,307.411346 429.382599,307.824005 428.926178,308.449829 
	C428.138916,308.807068 427.495819,308.951080 426.528748,309.148163 
	C425.305298,306.343018 426.870117,305.042969 429.642212,304.147522 
z"/>
<path fill="#F3DECF" opacity="1.000000" stroke="none" 
	d="
M412.379822,368.123840 
	C412.019318,367.301788 412.025726,366.556274 412.049255,365.440369 
	C413.459717,365.340118 414.853058,365.610229 416.601624,365.914398 
	C417.530579,366.005646 418.104340,366.062836 419.103668,366.214661 
	C418.842499,366.726746 418.155762,367.144135 416.875183,367.692444 
	C415.851593,367.925903 415.421814,368.028473 414.992035,368.131042 
	C414.243591,368.154144 413.495148,368.177246 412.379822,368.123840 
z"/>
<path fill="#BC8A71" opacity="1.000000" stroke="none" 
	d="
M405.973572,368.104065 
	C406.767548,368.158905 407.561493,368.213745 408.726196,368.415009 
	C406.450409,369.015533 403.803955,369.469574 401.054382,369.605774 
	C401.381073,369.118805 401.810822,368.949677 402.885132,368.773682 
	C404.344299,368.545929 405.158936,368.325012 405.973572,368.104065 
z"/>
<path fill="#F3DECF" opacity="1.000000" stroke="none" 
	d="
M405.810547,247.625885 
	C405.570587,249.111099 405.312927,250.229980 404.924377,251.678925 
	C404.528809,249.608459 404.264160,247.207901 404.021301,244.378296 
	C404.626343,245.052689 405.209625,246.156128 405.810547,247.625885 
z"/>
<path fill="#E9CBBA" opacity="1.000000" stroke="none" 
	d="
M392.315308,380.522186 
	C391.971619,381.280487 391.587708,381.630402 390.963440,382.056305 
	C390.251587,381.706055 389.780121,381.279785 389.258606,380.532074 
	C389.998627,378.957855 390.788666,377.705109 391.846985,376.236755 
	C392.168518,377.385376 392.221802,378.749603 392.315308,380.522186 
z"/>
<path fill="#BC8A71" opacity="1.000000" stroke="none" 
	d="
M391.424103,247.017242 
	C391.668945,248.092834 391.602142,249.270065 391.329529,250.734741 
	C391.119995,249.721085 391.116211,248.419983 391.424103,247.017242 
z"/>
<path fill="#BC8A71" opacity="1.000000" stroke="none" 
	d="
M433.293518,355.900146 
	C433.311249,355.243927 433.681824,354.533417 434.316284,353.663696 
	C434.268860,354.284943 433.957611,355.065399 433.293518,355.900146 
z"/>
<path fill="#BC8A71" opacity="1.000000" stroke="none" 
	d="
M434.135284,288.864136 
	C433.714935,288.490906 433.508789,287.980621 433.397339,287.193909 
	C433.777802,287.520691 434.063660,288.123871 434.135284,288.864136 
z"/>
<path fill="#BC8A71" opacity="1.000000" stroke="none" 
	d="
M434.413635,293.979614 
	C434.082184,293.570038 434.019470,293.108673 434.048401,292.307068 
	C434.320831,292.620483 434.501587,293.274139 434.413635,293.979614 
z"/>
<path fill="#F3DECF" opacity="1.000000" stroke="none" 
	d="
M420.344055,366.214752 
	C420.679077,365.788635 421.362457,365.370605 422.364258,364.938446 
	C422.682617,364.924316 422.732330,365.367004 422.731262,365.589111 
	C422.050934,365.948395 421.371674,366.085602 420.344055,366.214752 
z"/>
<path fill="#BC8A71" opacity="1.000000" stroke="none" 
	d="
M415.165375,368.318420 
	C415.421814,368.028473 415.851593,367.925903 416.614197,367.850098 
	C416.410950,368.086487 415.874817,368.296143 415.165375,368.318420 
z"/>
<path fill="#F3E8DA" opacity="1.000000" stroke="none" 
	d="
M423.933411,494.774139 
	C423.522064,495.040771 423.080536,495.015900 422.308533,494.954956 
	C422.321960,494.449432 422.665771,493.980042 423.009613,493.510620 
	C423.307465,493.834625 423.605316,494.158630 423.933411,494.774139 
z"/>
<path fill="#E9E1D6" opacity="1.000000" stroke="none" 
	d="
M466.445374,688.356445 
	C465.914307,698.088867 463.864166,700.300781 454.401947,700.821716 
	C448.969025,701.120850 443.506104,700.875916 437.155548,700.875916 
	C437.155548,694.609192 437.014862,688.343201 437.314636,682.098328 
	C437.357239,681.211121 439.504303,679.777527 440.738190,679.710144 
	C445.370697,679.456970 450.028381,679.674072 454.676727,679.698486 
	C460.507111,679.729065 463.904388,683.230591 466.445374,688.356445 
z"/>
<path fill="#E9E0D6" opacity="1.000000" stroke="none" 
	d="
M438.236328,656.507568 
	C444.818909,655.661377 451.231049,654.812622 457.622803,654.945618 
	C462.022247,655.037170 463.527435,658.481384 463.495697,662.722046 
	C463.465179,666.802429 463.210144,670.767212 458.186096,671.441895 
	C451.530334,672.335693 444.813843,672.777344 437.150482,673.505737 
	C437.503418,667.051086 437.780304,661.987305 438.236328,656.507568 
z"/>
<path fill="#E5DDD3" opacity="1.000000" stroke="none" 
	d="
M282.483337,663.463440 
	C283.644226,661.288757 284.639893,659.453796 286.469360,656.082214 
	C290.774445,666.411743 294.482025,675.307678 298.535980,685.034668 
	C289.646149,685.034668 281.832031,685.034668 273.188110,685.034668 
	C276.363647,677.650024 279.340881,670.726624 282.483337,663.463440 
z"/>
<path fill="#B87250" opacity="1.000000" stroke="none" 
	d="
M400.452057,350.578674 
	C400.117340,350.631592 399.782654,350.684540 398.757111,350.841400 
	C392.714203,350.735779 387.362091,350.526245 382.021851,349.850769 
	C382.025177,339.612976 382.016663,329.841064 382.424255,319.997192 
	C389.517914,322.056580 396.459686,323.623138 402.756042,326.569183 
	C405.691528,327.942719 407.906006,331.731598 409.451538,334.909882 
	C410.580017,337.230469 410.081207,340.342438 410.307770,343.101624 
	C410.307770,343.101624 410.101044,343.533295 409.709442,343.827362 
	C406.362579,346.273834 403.407318,348.426270 400.452057,350.578674 
z"/>
<path fill="#954E30" opacity="1.000000" stroke="none" 
	d="
M382.008118,320.069183 
	C382.016663,329.841064 382.025177,339.612976 381.570251,349.891724 
	C378.408386,350.354767 375.709961,350.310944 372.667480,350.058899 
	C372.024567,347.555237 371.381042,345.243286 371.490509,342.967499 
	C371.842957,335.639252 372.473083,328.324371 372.996155,321.004333 
	C372.996155,321.004333 373.169067,320.630371 373.442139,320.391113 
	C374.145660,319.799622 374.576111,319.447418 375.006592,319.095245 
	C375.455994,319.129913 375.905365,319.164581 377.019318,319.274658 
	C379.125275,319.589783 380.566711,319.829498 382.008118,320.069183 
z"/>
<path fill="#97563C" opacity="1.000000" stroke="none" 
	d="
M377.002960,279.028046 
	C377.161835,278.931458 377.320709,278.834900 378.085388,278.709106 
	C380.504486,279.045441 382.317780,279.411011 384.084595,280.232300 
	C383.674713,288.120026 383.311279,295.552002 382.721985,303.172424 
	C382.335419,303.918152 382.174683,304.475433 381.586945,305.085510 
	C379.441345,305.093323 377.722778,305.048340 376.004211,305.003357 
	C375.867004,304.750366 375.723053,304.501251 375.465637,303.669678 
	C375.507263,298.375519 375.655579,293.667664 375.803894,288.959808 
	C375.901093,288.219482 375.998352,287.479156 376.278687,286.055511 
	C376.642151,283.257477 376.822571,281.142761 377.002960,279.028046 
z"/>
<path fill="#EDD8C9" opacity="1.000000" stroke="none" 
	d="
M382.424255,319.997192 
	C380.566711,319.829498 379.125275,319.589783 377.350891,319.202393 
	C380.550873,318.761871 384.158600,317.869965 387.601349,318.299805 
	C395.003082,319.223846 401.771942,322.508545 407.632324,326.852448 
	C410.544495,329.010986 412.379974,333.164673 413.617889,336.786499 
	C414.152679,338.351135 411.942841,340.853882 410.643768,343.016052 
	C410.081207,340.342438 410.580017,337.230469 409.451538,334.909882 
	C407.906006,331.731598 405.691528,327.942719 402.756042,326.569183 
	C396.459686,323.623138 389.517914,322.056580 382.424255,319.997192 
z"/>
<path fill="#F3DECF" opacity="1.000000" stroke="none" 
	d="
M384.131073,279.776581 
	C382.317780,279.411011 380.504486,279.045441 378.306824,278.539612 
	C379.558929,277.947784 381.206665,277.077606 382.829834,277.121277 
	C388.253174,277.267242 393.684021,277.581970 399.080719,278.136627 
	C403.662537,278.607574 408.663116,285.256042 407.526123,289.727661 
	C405.517242,288.470215 403.927185,286.977631 402.148621,285.203674 
	C399.499573,284.149689 397.039093,283.377106 394.395142,282.301727 
	C393.147705,281.639862 392.083710,281.280762 390.646057,280.810669 
	C388.225281,280.391937 386.178192,280.084259 384.131073,279.776581 
z"/>
<path fill="#F3DECF" opacity="1.000000" stroke="none" 
	d="
M376.226685,305.291260 
	C377.722778,305.048340 379.441345,305.093323 381.993347,305.183105 
	C387.081665,305.423615 391.338959,305.811951 395.590851,305.759949 
	C399.703949,305.709717 403.237457,304.211426 405.250793,300.241974 
	C405.265503,300.235260 405.299194,300.248016 405.595886,300.156403 
	C406.883545,299.323090 407.874451,298.581360 408.865356,297.839630 
	C408.069000,299.966492 407.873749,303.260498 406.378571,304.030640 
	C396.747772,308.991089 386.671631,309.842529 376.226685,305.291260 
z"/>
<path fill="#EDD8C9" opacity="1.000000" stroke="none" 
	d="
M372.617737,321.091919 
	C372.473083,328.324371 371.842957,335.639252 371.490509,342.967499 
	C371.381042,345.243286 372.024567,347.555237 372.659241,350.274658 
	C372.995087,350.698639 372.960632,351.129150 372.960632,351.129150 
	C369.434174,350.994965 369.070221,348.176422 369.200470,345.838715 
	C369.620972,338.291321 370.410858,330.763489 371.141083,323.236115 
	C371.210388,322.521790 371.859406,321.863708 372.617737,321.091919 
z"/>
<path fill="#F3DECF" opacity="1.000000" stroke="none" 
	d="
M373.098022,351.496460 
	C372.960632,351.129150 372.995087,350.698639 373.003326,350.482910 
	C375.709961,350.310944 378.408386,350.354767 381.558411,350.357666 
	C387.362091,350.526245 392.714203,350.735779 398.533844,350.966614 
	C398.568939,351.475342 398.130737,352.392303 397.704895,352.386566 
	C389.547516,352.277100 381.391602,352.059204 373.098022,351.496460 
z"/>
<path fill="#F3DECF" opacity="1.000000" stroke="none" 
	d="
M421.430725,272.169128 
	C423.280457,273.820892 424.750336,275.405457 426.266998,277.309265 
	C420.448914,277.579559 415.407196,275.842957 412.043518,270.298401 
	C415.046661,270.653229 418.048737,271.377594 421.430725,272.169128 
z"/>
<path fill="#B98367" opacity="1.000000" stroke="none" 
	d="
M408.914062,297.438171 
	C407.874451,298.581360 406.883545,299.323090 405.553650,299.744385 
	C405.965027,295.788513 407.332336,292.121613 402.958252,289.477997 
	C402.217407,289.030243 402.517822,286.859650 402.337158,285.485016 
	C403.927185,286.977631 405.517242,288.470215 407.418823,290.073181 
	C407.730286,290.183594 407.751770,290.145294 407.786530,290.474426 
	C408.225708,291.531769 408.630127,292.259979 409.034576,292.988159 
	C409.010651,294.337677 408.986725,295.687225 408.914062,297.438171 
z"/>
<path fill="#F3DECF" opacity="1.000000" stroke="none" 
	d="
M400.896606,350.695007 
	C403.407318,348.426270 406.362579,346.273834 409.656982,344.060852 
	C409.447388,349.869232 407.934753,351.059601 400.896606,350.695007 
z"/>
<path fill="#F3DECF" opacity="1.000000" stroke="none" 
	d="
M375.449646,289.071381 
	C375.655579,293.667664 375.507263,298.375519 375.311890,303.518066 
	C371.309174,299.074188 373.598175,294.124023 375.449646,289.071381 
z"/>
<path fill="#F3DECF" opacity="1.000000" stroke="none" 
	d="
M368.422211,380.995361 
	C369.167755,383.969269 369.279755,386.781860 364.381165,386.056702 
	C365.352386,384.332947 366.737549,382.708435 368.422211,380.995361 
z"/>
<path fill="#F3DECF" opacity="1.000000" stroke="none" 
	d="
M376.638733,279.100586 
	C376.822571,281.142761 376.642151,283.257477 376.234131,285.682190 
	C376.095825,283.719208 376.185150,281.446167 376.638733,279.100586 
z"/>
<path fill="#F9E3D4" opacity="1.000000" stroke="none" 
	d="
M428.932861,280.004517 
	C429.335602,280.757721 429.738342,281.510895 430.158813,282.586487 
	C429.145630,282.171814 428.114777,281.434692 427.353302,280.351807 
	C428.059418,280.005493 428.496155,280.005005 428.932861,280.004517 
z"/>
<path fill="#F3DECF" opacity="1.000000" stroke="none" 
	d="
M428.842163,279.714233 
	C428.496155,280.005005 428.059418,280.005493 427.294220,280.010468 
	C426.697510,279.461792 426.429260,278.908661 426.269897,278.042480 
	C427.169678,278.294281 427.960571,278.859100 428.842163,279.714233 
z"/>
<path fill="#F3DECF" opacity="1.000000" stroke="none" 
	d="
M405.981476,367.822968 
	C405.158936,368.325012 404.344299,368.545929 403.220306,368.675842 
	C402.935944,368.228271 402.960938,367.871704 402.994934,367.245911 
	C403.751190,366.981354 404.498474,366.986053 405.619202,366.985107 
	C405.991577,367.166870 405.990479,367.354340 405.981476,367.822968 
z"/>
<path fill="#F3DECF" opacity="1.000000" stroke="none" 
	d="
M409.247986,292.798950 
	C408.630127,292.259979 408.225708,291.531769 407.802734,290.484497 
	C408.343262,290.980194 408.902344,291.794952 409.247986,292.798950 
z"/>
<path fill="#EDD8C9" opacity="1.000000" stroke="none" 
	d="
M374.837402,318.853516 
	C374.576111,319.447418 374.145660,319.799622 373.432739,320.185333 
	C373.656281,319.683167 374.162262,319.147461 374.837402,318.853516 
z"/>
<path fill="#F3DECF" opacity="1.000000" stroke="none" 
	d="
M386.148621,264.432556 
	C386.432281,264.177582 386.888123,264.094208 387.680908,264.112793 
	C387.452148,264.344543 386.886475,264.474335 386.148621,264.432556 
z"/>
<path fill="#F3DECF" opacity="1.000000" stroke="none" 
	d="
M409.196777,269.126953 
	C409.378632,268.984009 409.720306,269.079712 410.253113,269.366486 
	C410.081726,269.493561 409.719147,269.429596 409.196777,269.126953 
z"/>
<path fill="#F9E3D4" opacity="1.000000" stroke="none" 
	d="
M435.819824,334.083984 
	C436.013214,334.159424 436.053192,334.328217 436.037842,334.751251 
	C435.877167,334.729462 435.771790,334.453400 435.819824,334.083984 
z"/>
<path fill="#F3DECF" opacity="1.000000" stroke="none" 
	d="
M400.191254,243.695923 
	C400.279907,243.373932 400.572174,243.345810 401.059998,243.645660 
	C401.238159,243.793182 400.809387,243.888107 400.809387,243.888107 
	C400.809387,243.888107 400.377441,243.809311 400.191254,243.695923 
z"/>
<path fill="#E9CBBA" opacity="1.000000" stroke="none" 
	d="
M392.284729,370.935608 
	C392.509705,371.406738 392.505341,371.983978 392.304565,372.785950 
	C392.090546,372.354370 392.072937,371.698059 392.284729,370.935608 
z"/>
<path fill="#B86F4B" opacity="1.000000" stroke="none" 
	d="
M402.148621,285.203674 
	C402.517822,286.859650 402.217407,289.030243 402.958252,289.477997 
	C407.332336,292.121613 405.965027,295.788513 405.256958,299.835999 
	C405.299194,300.248016 405.265503,300.235260 404.856018,300.173462 
	C402.436859,301.264069 400.480469,303.270813 398.407043,303.400055 
	C393.282532,303.719574 388.104431,303.178925 382.947815,302.984009 
	C383.311279,295.552002 383.674713,288.120026 384.084595,280.232300 
	C386.178192,280.084259 388.225281,280.391937 390.723389,281.190399 
	C392.309143,281.988953 393.443848,282.296722 394.578583,282.604492 
	C397.039093,283.377106 399.499573,284.149689 402.148621,285.203674 
z"/>
<path fill="#B98367" opacity="1.000000" stroke="none" 
	d="
M382.721985,303.172424 
	C388.104431,303.178925 393.282532,303.719574 398.407043,303.400055 
	C400.480469,303.270813 402.436859,301.264069 404.841309,300.180176 
	C403.237457,304.211426 399.703949,305.709717 395.590851,305.759949 
	C391.338959,305.811951 387.081665,305.423615 382.420349,305.130310 
	C382.174683,304.475433 382.335419,303.918152 382.721985,303.172424 
z"/>
<path fill="#B98367" opacity="1.000000" stroke="none" 
	d="
M394.395142,282.301727 
	C393.443848,282.296722 392.309143,281.988953 391.097046,281.301422 
	C392.083710,281.280762 393.147705,281.639862 394.395142,282.301727 
z"/>
</svg>