<?xml version="1.0" standalone="no"?>
<!DOCTYPE svg PUBLIC "-//W3C//DTD SVG 20010904//EN"
 "http://www.w3.org/TR/2001/REC-SVG-20010904/DTD/svg10.dtd">
<svg version="1.0" xmlns="http://www.w3.org/2000/svg"
 width="756.000000pt" height="734.000000pt" viewBox="0 0 756.000000 734.000000"
 preserveAspectRatio="xMidYMid meet">

<g transform="translate(0.000000,734.000000) scale(0.100000,-0.100000)"
fill="#000000" stroke="none">
<path d="M3738 6686 c-61 -17 -117 -54 -160 -108 -33 -41 -130 -201 -323 -533
-49 -82 -102 -175 -120 -205 -18 -30 -100 -172 -182 -315 -83 -143 -183 -316
-223 -385 -40 -69 -106 -183 -147 -254 -41 -71 -125 -215 -188 -320 -260 -438
-375 -638 -387 -677 -14 -47 -23 -36 98 -124 95 -68 810 -604 879 -658 37 -29
270 -206 369 -280 163 -123 227 -161 321 -192 70 -24 91 -27 170 -22 94 5 213
42 208 65 -2 6 3 9 10 6 13 -5 91 43 153 95 69 57 324 241 334 241 9 0 14 14
11 33 -1 5 3 6 8 2 10 -6 86 37 92 52 2 4 24 21 49 37 44 29 125 93 162 129
10 9 21 17 26 17 12 0 67 51 65 61 -2 4 3 6 11 3 7 -3 25 9 39 26 15 17 28 29
31 28 3 -2 109 76 237 172 128 96 240 179 251 184 10 5 16 16 14 23 -3 8 -1
11 4 8 11 -7 56 20 87 52 14 15 20 30 16 45 -4 18 -113 206 -224 388 -36 59
-127 211 -176 293 -32 54 -65 111 -74 125 -16 27 -73 124 -111 192 -11 19 -44
74 -74 122 -30 48 -54 91 -54 94 0 4 -31 58 -70 120 -38 63 -70 117 -70 120 0
3 -10 20 -22 37 -13 18 -23 34 -24 37 0 3 -4 13 -9 23 -6 15 -10 16 -17 5 -6
-9 -7 -6 -3 8 3 13 0 28 -8 36 -8 7 -28 37 -44 66 -16 29 -33 49 -37 44 -4 -4
-6 -2 -4 4 2 8 -26 65 -67 132 -6 10 -23 41 -39 70 -21 38 -32 49 -39 40 -6
-9 -7 -7 -3 5 4 13 -25 69 -91 175 -53 86 -105 175 -116 196 -15 31 -21 36
-29 25 -8 -11 -8 -10 -4 5 9 27 -153 287 -219 352 -76 74 -191 106 -287 80z
m302 -117 c0 -6 -4 -7 -10 -4 -5 3 -10 11 -10 16 0 6 5 7 10 4 6 -3 10 -11 10
-16z m-224 -1630 c20 -7 22 -15 22 -83 -1 -52 -4 -74 -12 -70 -6 3 -2 -2 8
-10 11 -9 14 -16 7 -16 -7 0 -9 -5 -6 -11 4 -6 14 -8 22 -5 11 4 13 2 9 -9 -3
-8 -2 -15 3 -15 15 0 19 38 10 77 -5 21 -9 45 -9 53 0 13 1 13 10 0 9 -13 10
-13 10 0 0 8 5 32 11 53 9 32 13 36 34 31 13 -3 33 1 47 10 16 10 28 12 38 6
8 -5 11 -10 5 -10 -5 0 0 -7 12 -15 17 -12 20 -23 17 -62 -3 -43 -2 -45 5 -13
l8 35 1 -45 c0 -25 -3 -68 -7 -96 -6 -44 -5 -51 8 -46 10 4 12 1 6 -9 -7 -11
-6 -12 6 -3 8 6 31 9 52 6 29 -3 41 -10 47 -28 5 -13 16 -24 24 -24 8 0 20 -8
25 -17 6 -10 11 -14 11 -10 0 4 12 -3 27 -17 15 -14 30 -23 34 -21 10 7 20
-25 12 -37 -3 -6 -2 -8 4 -5 5 3 15 -22 22 -61 7 -37 14 -78 17 -92 3 -18 2
-21 -5 -11 -7 11 -10 9 -16 -8 -3 -11 -3 -30 0 -41 4 -13 2 -20 -8 -20 -7 0
-20 -12 -27 -27 -8 -16 -22 -35 -31 -43 -22 -20 -8 -60 21 -60 11 0 20 -7 20
-15 0 -15 22 -46 53 -74 9 -8 17 -22 17 -31 0 -13 -2 -13 -11 0 -8 12 -9 11
-5 -5 18 -69 17 -111 -5 -179 -12 -39 -28 -76 -35 -82 -7 -6 -11 -20 -8 -31 7
-24 -35 -70 -47 -52 -5 8 -9 7 -15 -2 -5 -8 -16 -15 -24 -16 -8 -1 -35 -7 -60
-12 -25 -6 -73 -16 -107 -23 -35 -7 -63 -16 -63 -21 0 -5 -12 -8 -27 -7 -53 4
-53 5 -47 -76 3 -50 1 -73 -6 -69 -6 3 -7 0 -4 -9 4 -10 1 -16 -7 -17 -8 0
-25 -2 -39 -4 -14 -1 -42 2 -63 9 l-38 11 3 105 3 105 -36 3 -37 3 -7 -83
c-10 -124 -6 -119 -78 -116 l-62 3 -3 106 -3 105 -92 17 c-51 10 -104 17 -120
17 -36 0 -50 36 -41 107 l6 53 64 0 c62 0 65 1 84 33 12 20 20 50 20 79 0 26
4 69 10 95 10 47 28 250 37 404 4 72 3 77 -20 92 -14 9 -47 20 -74 24 l-48 8
0 70 0 70 90 -1 c88 -1 117 -4 183 -19 l32 -7 0 111 0 112 58 -7 c31 -4 67
-10 78 -15z m1815 -1021 c11 -21 11 -22 -4 -9 -10 7 -17 17 -17 22 0 15 9 10
21 -13z"/>
<path d="M3767 4546 c-3 -8 -9 -62 -13 -121 -5 -86 -4 -109 7 -116 18 -11 59
-11 59 0 0 5 26 11 58 14 64 5 91 11 121 26 14 8 20 8 23 0 2 -6 12 0 23 12
11 12 15 19 9 16 -7 -4 -14 8 -18 33 -3 22 -11 40 -16 40 -6 0 -10 11 -10 24
0 19 -7 25 -37 32 -21 4 -46 8 -56 8 -10 1 -21 7 -26 14 -8 13 -68 31 -102 32
-9 0 -19 -6 -22 -14z"/>
<path d="M3726 4089 c-3 -35 -7 -102 -9 -149 l-2 -85 121 -3 c104 -2 127 0
167 18 43 19 73 51 70 75 -8 68 -16 85 -46 104 -18 11 -25 21 -17 21 8 1 -1 8
-20 16 -19 8 -43 13 -52 10 -10 -2 -20 0 -23 4 -12 19 -73 42 -127 47 l-56 6
-6 -64z m231 -225 c-3 -3 -12 -4 -19 -1 -8 3 -5 6 6 6 11 1 17 -2 13 -5z"/>
<path d="M1895 3356 c-52 -17 -138 -61 -193 -98 -39 -27 -76 -63 -149 -147
-35 -40 -104 -147 -188 -293 -42 -73 -95 -162 -118 -198 -37 -60 -81 -136
-318 -546 -47 -83 -109 -189 -137 -235 -101 -170 -178 -306 -212 -372 -19 -37
-68 -107 -108 -155 -101 -121 -146 -188 -139 -206 6 -14 349 -16 3507 -16
l3500 0 0 25 c0 13 -39 93 -86 177 -48 84 -98 173 -111 198 -69 124 -133 235
-189 330 -34 58 -99 172 -145 253 -83 147 -175 267 -207 267 -9 0 -27 11 -41
24 -15 14 -64 41 -109 60 -67 29 -97 36 -148 36 -71 0 -209 -34 -237 -58 -10
-9 -33 -25 -51 -36 -19 -12 -63 -48 -97 -81 -59 -56 -205 -165 -221 -165 -4 0
-27 -13 -51 -30 -25 -16 -50 -30 -57 -30 -6 0 -30 -11 -53 -24 -23 -13 -64
-31 -92 -41 -27 -10 -64 -24 -82 -31 -17 -8 -42 -14 -55 -14 -13 0 -52 -11
-86 -24 -67 -27 -187 -56 -226 -56 -24 0 -74 43 -86 74 -8 20 -161 159 -202
185 -21 12 -38 26 -38 30 0 4 -19 18 -42 31 -24 13 -47 28 -53 32 -26 21 -87
58 -96 58 -13 0 -72 30 -79 40 -7 11 -145 56 -215 71 -33 6 -69 17 -80 24 -25
15 -114 32 -265 50 -161 19 -425 70 -551 105 -236 67 -447 179 -664 354 -99
80 -140 117 -272 244 -98 96 -152 138 -219 172 -49 25 -70 30 -129 29 -38 0
-88 -6 -110 -13z"/>
<path d="M1578 879 c-16 -9 -18 -31 -18 -220 0 -225 3 -244 56 -320 13 -20 46
-47 72 -60 67 -34 205 -34 275 0 115 56 143 147 130 426 l-8 180 -40 0 -40 0
-6 -210 c-3 -115 -10 -222 -16 -236 -48 -114 -189 -145 -274 -61 -49 50 -59
102 -59 310 0 92 -4 172 -8 178 -11 17 -45 24 -64 13z"/>
<path d="M2812 882 c-11 -7 -104 -208 -192 -412 -15 -36 -41 -95 -58 -132 -17
-37 -27 -70 -22 -73 15 -9 80 -9 90 1 5 5 18 34 30 64 12 30 26 61 32 67 8 10
53 13 167 12 l156 0 36 -72 37 -72 46 -3 c35 -2 46 0 46 12 0 8 -40 96 -90
196 -49 100 -97 203 -107 228 -9 26 -35 80 -56 120 -36 66 -41 72 -70 72 -18
0 -38 -4 -45 -8z m79 -179 c41 -92 80 -195 75 -200 -8 -8 -221 -12 -233 -5
-12 7 -3 30 87 230 11 23 24 42 30 42 6 0 25 -30 41 -67z"/>
<path d="M3693 879 c-13 -5 -22 -20 -26 -46 -8 -48 -7 -416 2 -503 l6 -65 43
-3 42 -3 0 309 0 310 -23 4 c-13 3 -33 1 -44 -3z"/>
<path d="M4274 876 c-2 -6 -3 -146 -2 -311 l3 -300 175 0 c163 0 178 2 217 23
108 57 106 229 -4 291 -17 9 -17 11 3 33 12 13 27 33 33 45 14 27 14 100 1
139 -12 33 -60 70 -111 84 -48 15 -309 11 -315 -4z m342 -109 c12 -37 7 -98
-8 -114 -34 -33 -233 -48 -244 -18 -3 8 -2 47 3 87 l8 73 90 5 c103 6 141 -3
151 -33z m5 -254 c34 -32 36 -39 32 -76 -3 -25 -15 -52 -29 -67 -23 -23 -32
-25 -144 -29 l-120 -3 0 101 c0 122 0 122 135 114 86 -5 92 -7 126 -40z"/>
<path d="M5177 883 c-9 -8 -9 -570 -1 -601 6 -20 12 -23 48 -20 l41 3 3 245
c3 268 -2 342 -24 365 -16 15 -55 20 -67 8z"/>
<path d="M5677 883 c-4 -3 -7 -21 -7 -39 0 -37 12 -42 124 -47 l59 -2 1 -70
c1 -38 3 -159 4 -267 l2 -198 45 0 45 0 2 268 3 267 93 3 92 3 0 38 c0 26 -5
41 -16 45 -21 8 -439 8 -447 -1z"/>
</g>
</svg>
